G04 Layer_Physical_Order=2*
G04 Layer_Color=16711680*
%FSLAX25Y25*%
%MOIN*%
G70*
G01*
G75*
%ADD10O,0.10000X0.31500*%
%ADD11C,0.01000*%
%ADD12C,0.05512*%
%ADD13R,0.05905X0.05905*%
%ADD14O,0.03937X0.07874*%
%ADD15O,0.03937X0.07874*%
%ADD16C,0.04724*%
%ADD17O,0.07874X0.03937*%
%ADD18O,0.07874X0.03937*%
%ADD19C,0.06000*%
%ADD20C,0.11811*%
%ADD21C,0.09842*%
%ADD22R,0.05905X0.05905*%
G36*
X1288471Y313498D02*
X1216677D01*
X1216092Y313382D01*
X1215596Y313050D01*
X1215264Y312554D01*
X1215148Y311968D01*
Y266703D01*
X1206586D01*
X1206329Y267131D01*
X1206641Y267714D01*
X1206984Y268845D01*
X1207100Y270022D01*
Y291522D01*
X1206984Y292698D01*
X1206641Y293829D01*
X1206084Y294871D01*
X1205334Y295785D01*
X1204420Y296535D01*
X1203378Y297092D01*
X1202247Y297435D01*
X1201071Y297551D01*
X1199895Y297435D01*
X1198764Y297092D01*
X1197721Y296535D01*
X1196808Y295785D01*
X1196058Y294871D01*
X1195501Y293829D01*
X1195158Y292698D01*
X1195042Y291522D01*
Y270022D01*
X1195158Y268845D01*
X1195501Y267714D01*
X1195812Y267131D01*
X1195555Y266703D01*
X1191001D01*
X1190744Y267131D01*
X1191055Y267714D01*
X1191398Y268845D01*
X1191514Y270022D01*
Y291522D01*
X1191398Y292698D01*
X1191055Y293829D01*
X1190498Y294871D01*
X1189748Y295785D01*
X1188835Y296535D01*
X1187792Y297092D01*
X1186661Y297435D01*
X1185485Y297551D01*
X1184309Y297435D01*
X1183178Y297092D01*
X1182135Y296535D01*
X1181222Y295785D01*
X1180472Y294871D01*
X1179915Y293829D01*
X1179572Y292698D01*
X1179456Y291522D01*
Y270022D01*
X1179572Y268845D01*
X1179915Y267714D01*
X1180227Y267131D01*
X1179970Y266703D01*
X1175401D01*
X1175144Y267131D01*
X1175455Y267714D01*
X1175798Y268845D01*
X1175914Y270022D01*
Y291522D01*
X1175798Y292698D01*
X1175455Y293829D01*
X1174898Y294871D01*
X1174148Y295785D01*
X1173235Y296535D01*
X1172192Y297092D01*
X1171061Y297435D01*
X1169885Y297551D01*
X1168709Y297435D01*
X1167578Y297092D01*
X1166535Y296535D01*
X1165622Y295785D01*
X1164872Y294871D01*
X1164315Y293829D01*
X1163972Y292698D01*
X1163856Y291522D01*
Y270022D01*
X1163972Y268845D01*
X1164315Y267714D01*
X1164627Y267131D01*
X1164369Y266703D01*
X1159701D01*
X1159443Y267131D01*
X1159755Y267714D01*
X1160098Y268845D01*
X1160214Y270022D01*
Y291522D01*
X1160098Y292698D01*
X1159755Y293829D01*
X1159198Y294871D01*
X1158448Y295785D01*
X1157535Y296535D01*
X1156492Y297092D01*
X1155361Y297435D01*
X1154185Y297551D01*
X1153009Y297435D01*
X1151878Y297092D01*
X1150836Y296535D01*
X1149922Y295785D01*
X1149172Y294871D01*
X1148615Y293829D01*
X1148272Y292698D01*
X1148156Y291522D01*
Y270022D01*
X1148272Y268845D01*
X1148615Y267714D01*
X1148927Y267131D01*
X1148670Y266703D01*
X1144193D01*
X1143936Y267131D01*
X1144247Y267714D01*
X1144590Y268845D01*
X1144706Y270022D01*
Y291522D01*
X1144590Y292698D01*
X1144247Y293829D01*
X1143690Y294871D01*
X1142940Y295785D01*
X1142027Y296535D01*
X1140984Y297092D01*
X1139853Y297435D01*
X1138677Y297551D01*
X1137501Y297435D01*
X1136370Y297092D01*
X1135328Y296535D01*
X1134414Y295785D01*
X1133664Y294871D01*
X1133107Y293829D01*
X1132764Y292698D01*
X1132648Y291522D01*
Y270022D01*
X1132764Y268845D01*
X1133107Y267714D01*
X1133419Y267131D01*
X1133162Y266703D01*
X1128602D01*
X1128345Y267131D01*
X1128657Y267714D01*
X1129000Y268845D01*
X1129116Y270022D01*
Y291522D01*
X1129000Y292698D01*
X1128657Y293829D01*
X1128100Y294871D01*
X1127350Y295785D01*
X1126436Y296535D01*
X1125394Y297092D01*
X1124263Y297435D01*
X1123087Y297551D01*
X1121910Y297435D01*
X1120779Y297092D01*
X1119737Y296535D01*
X1118823Y295785D01*
X1118074Y294871D01*
X1117517Y293829D01*
X1117173Y292698D01*
X1117058Y291522D01*
Y270022D01*
X1117173Y268845D01*
X1117517Y267714D01*
X1117828Y267131D01*
X1117571Y266703D01*
X1113001D01*
X1112743Y267131D01*
X1113055Y267714D01*
X1113398Y268845D01*
X1113514Y270022D01*
Y291522D01*
X1113398Y292698D01*
X1113055Y293829D01*
X1112498Y294871D01*
X1111748Y295785D01*
X1110835Y296535D01*
X1109792Y297092D01*
X1108661Y297435D01*
X1107485Y297551D01*
X1106309Y297435D01*
X1105178Y297092D01*
X1104136Y296535D01*
X1103222Y295785D01*
X1102472Y294871D01*
X1101915Y293829D01*
X1101572Y292698D01*
X1101456Y291522D01*
Y270022D01*
X1101572Y268845D01*
X1101915Y267714D01*
X1102227Y267131D01*
X1101970Y266703D01*
X1097401D01*
X1097143Y267131D01*
X1097455Y267714D01*
X1097798Y268845D01*
X1097914Y270022D01*
Y291522D01*
X1097798Y292698D01*
X1097455Y293829D01*
X1096898Y294871D01*
X1096148Y295785D01*
X1095235Y296535D01*
X1094192Y297092D01*
X1093061Y297435D01*
X1091885Y297551D01*
X1090709Y297435D01*
X1089578Y297092D01*
X1088535Y296535D01*
X1087622Y295785D01*
X1086872Y294871D01*
X1086315Y293829D01*
X1085972Y292698D01*
X1085856Y291522D01*
Y270022D01*
X1085972Y268845D01*
X1086315Y267714D01*
X1086627Y267131D01*
X1086370Y266703D01*
X1081801D01*
X1081544Y267131D01*
X1081855Y267714D01*
X1082198Y268845D01*
X1082314Y270022D01*
Y291522D01*
X1082198Y292698D01*
X1081855Y293829D01*
X1081298Y294871D01*
X1080548Y295785D01*
X1079635Y296535D01*
X1078592Y297092D01*
X1077461Y297435D01*
X1076285Y297551D01*
X1075109Y297435D01*
X1073978Y297092D01*
X1072935Y296535D01*
X1072022Y295785D01*
X1071272Y294871D01*
X1070715Y293829D01*
X1070372Y292698D01*
X1070256Y291522D01*
Y270022D01*
X1070372Y268845D01*
X1070715Y267714D01*
X1071027Y267131D01*
X1070770Y266703D01*
X1066202D01*
X1065945Y267131D01*
X1066257Y267714D01*
X1066600Y268845D01*
X1066716Y270022D01*
Y291522D01*
X1066600Y292698D01*
X1066257Y293829D01*
X1065700Y294871D01*
X1064950Y295785D01*
X1064036Y296535D01*
X1062994Y297092D01*
X1061863Y297435D01*
X1060687Y297551D01*
X1059510Y297435D01*
X1058379Y297092D01*
X1057337Y296535D01*
X1056423Y295785D01*
X1055674Y294871D01*
X1055116Y293829D01*
X1054773Y292698D01*
X1054658Y291522D01*
Y270022D01*
X1054773Y268845D01*
X1055116Y267714D01*
X1055428Y267131D01*
X1055171Y266703D01*
X1050615D01*
X1050358Y267131D01*
X1050669Y267714D01*
X1051012Y268845D01*
X1051128Y270022D01*
Y291522D01*
X1051012Y292698D01*
X1050669Y293829D01*
X1050112Y294871D01*
X1049362Y295785D01*
X1048449Y296535D01*
X1047406Y297092D01*
X1046275Y297435D01*
X1045099Y297551D01*
X1043923Y297435D01*
X1042792Y297092D01*
X1041750Y296535D01*
X1040836Y295785D01*
X1040086Y294871D01*
X1039529Y293829D01*
X1039186Y292698D01*
X1039070Y291522D01*
Y270022D01*
X1039186Y268845D01*
X1039529Y267714D01*
X1039841Y267131D01*
X1039584Y266703D01*
X1035015D01*
X1034758Y267131D01*
X1035069Y267714D01*
X1035412Y268845D01*
X1035528Y270022D01*
Y291522D01*
X1035412Y292698D01*
X1035069Y293829D01*
X1034512Y294871D01*
X1033762Y295785D01*
X1032849Y296535D01*
X1031806Y297092D01*
X1030675Y297435D01*
X1029499Y297551D01*
X1028323Y297435D01*
X1027192Y297092D01*
X1026150Y296535D01*
X1025236Y295785D01*
X1024486Y294871D01*
X1023929Y293829D01*
X1023586Y292698D01*
X1023470Y291522D01*
Y270022D01*
X1023586Y268845D01*
X1023929Y267714D01*
X1024241Y267131D01*
X1023984Y266703D01*
X1019315D01*
X1019058Y267131D01*
X1019369Y267714D01*
X1019712Y268845D01*
X1019828Y270022D01*
Y291522D01*
X1019712Y292698D01*
X1019369Y293829D01*
X1018812Y294871D01*
X1018062Y295785D01*
X1017149Y296535D01*
X1016106Y297092D01*
X1014975Y297435D01*
X1013799Y297551D01*
X1012623Y297435D01*
X1011492Y297092D01*
X1010450Y296535D01*
X1009536Y295785D01*
X1008786Y294871D01*
X1008229Y293829D01*
X1007886Y292698D01*
X1007770Y291522D01*
Y270022D01*
X1007886Y268845D01*
X1008229Y267714D01*
X1008541Y267131D01*
X1008284Y266703D01*
X1003807D01*
X1003550Y267131D01*
X1003861Y267714D01*
X1004204Y268845D01*
X1004320Y270022D01*
Y291522D01*
X1004204Y292698D01*
X1003861Y293829D01*
X1003304Y294871D01*
X1002555Y295785D01*
X1001641Y296535D01*
X1000599Y297092D01*
X999467Y297435D01*
X998291Y297551D01*
X997115Y297435D01*
X995984Y297092D01*
X994942Y296535D01*
X994028Y295785D01*
X993278Y294871D01*
X992721Y293829D01*
X992378Y292698D01*
X992262Y291522D01*
Y270022D01*
X992378Y268845D01*
X992721Y267714D01*
X993033Y267131D01*
X992776Y266703D01*
X988216D01*
X987959Y267131D01*
X988271Y267714D01*
X988614Y268845D01*
X988730Y270022D01*
Y291522D01*
X988614Y292698D01*
X988271Y293829D01*
X987714Y294871D01*
X986964Y295785D01*
X986050Y296535D01*
X985008Y297092D01*
X983877Y297435D01*
X982701Y297551D01*
X981525Y297435D01*
X980394Y297092D01*
X979351Y296535D01*
X978438Y295785D01*
X977688Y294871D01*
X977131Y293829D01*
X976788Y292698D01*
X976672Y291522D01*
Y270022D01*
X976788Y268845D01*
X977131Y267714D01*
X977442Y267131D01*
X977185Y266703D01*
X972615D01*
X972358Y267131D01*
X972669Y267714D01*
X973012Y268845D01*
X973128Y270022D01*
Y291522D01*
X973012Y292698D01*
X972669Y293829D01*
X972112Y294871D01*
X971362Y295785D01*
X970449Y296535D01*
X969406Y297092D01*
X968275Y297435D01*
X967099Y297551D01*
X965923Y297435D01*
X964792Y297092D01*
X963750Y296535D01*
X962836Y295785D01*
X962086Y294871D01*
X961529Y293829D01*
X961186Y292698D01*
X961070Y291522D01*
Y270022D01*
X961186Y268845D01*
X961529Y267714D01*
X961841Y267131D01*
X961584Y266703D01*
X957015D01*
X956758Y267131D01*
X957069Y267714D01*
X957412Y268845D01*
X957528Y270022D01*
Y291522D01*
X957412Y292698D01*
X957069Y293829D01*
X956512Y294871D01*
X955762Y295785D01*
X954849Y296535D01*
X953806Y297092D01*
X952675Y297435D01*
X951499Y297551D01*
X950323Y297435D01*
X949192Y297092D01*
X948150Y296535D01*
X947236Y295785D01*
X946486Y294871D01*
X945929Y293829D01*
X945586Y292698D01*
X945470Y291522D01*
Y270022D01*
X945586Y268845D01*
X945929Y267714D01*
X946241Y267131D01*
X945984Y266703D01*
X941415D01*
X941158Y267131D01*
X941469Y267714D01*
X941812Y268845D01*
X941928Y270022D01*
Y291522D01*
X941812Y292698D01*
X941469Y293829D01*
X940912Y294871D01*
X940162Y295785D01*
X939249Y296535D01*
X938206Y297092D01*
X937429Y297328D01*
Y318101D01*
X937312Y318686D01*
X936981Y319182D01*
X933508Y322655D01*
X933659Y323020D01*
X933788Y324000D01*
X933659Y324980D01*
X933281Y325894D01*
X932679Y326679D01*
X931894Y327281D01*
X930980Y327659D01*
X930000Y327788D01*
X929020Y327659D01*
X928106Y327281D01*
X927321Y326679D01*
X926719Y325894D01*
X926341Y324980D01*
X926212Y324000D01*
X926341Y323020D01*
X926719Y322106D01*
X927321Y321321D01*
X928106Y320719D01*
X929020Y320341D01*
X930000Y320212D01*
X930980Y320341D01*
X931345Y320492D01*
X934370Y317467D01*
Y297328D01*
X933592Y297092D01*
X932550Y296535D01*
X931636Y295785D01*
X930886Y294871D01*
X930329Y293829D01*
X929986Y292698D01*
X929870Y291522D01*
Y270022D01*
X929986Y268845D01*
X930329Y267714D01*
X930641Y267131D01*
X930384Y266703D01*
X925816D01*
X925559Y267131D01*
X925871Y267714D01*
X926214Y268845D01*
X926330Y270022D01*
Y291522D01*
X926214Y292698D01*
X925871Y293829D01*
X925314Y294871D01*
X924564Y295785D01*
X923650Y296535D01*
X922608Y297092D01*
X921477Y297435D01*
X920301Y297551D01*
X919125Y297435D01*
X917994Y297092D01*
X916951Y296535D01*
X916038Y295785D01*
X915288Y294871D01*
X914731Y293829D01*
X914388Y292698D01*
X914272Y291522D01*
Y270022D01*
X914388Y268845D01*
X914731Y267714D01*
X915042Y267131D01*
X914785Y266703D01*
X910229D01*
X909972Y267131D01*
X910283Y267714D01*
X910627Y268845D01*
X910742Y270022D01*
Y291522D01*
X910627Y292698D01*
X910283Y293829D01*
X909726Y294871D01*
X908977Y295785D01*
X908063Y296535D01*
X907021Y297092D01*
X905890Y297435D01*
X904713Y297551D01*
X903537Y297435D01*
X902406Y297092D01*
X901364Y296535D01*
X900450Y295785D01*
X899700Y294871D01*
X899143Y293829D01*
X898800Y292698D01*
X898684Y291522D01*
Y270022D01*
X898800Y268845D01*
X899143Y267714D01*
X899455Y267131D01*
X899198Y266703D01*
X894629D01*
X894372Y267131D01*
X894683Y267714D01*
X895027Y268845D01*
X895142Y270022D01*
Y291522D01*
X895027Y292698D01*
X894683Y293829D01*
X894126Y294871D01*
X893377Y295785D01*
X892463Y296535D01*
X891421Y297092D01*
X890290Y297435D01*
X889113Y297551D01*
X887937Y297435D01*
X886806Y297092D01*
X885764Y296535D01*
X884850Y295785D01*
X884100Y294871D01*
X883543Y293829D01*
X883200Y292698D01*
X883084Y291522D01*
Y270022D01*
X883200Y268845D01*
X883543Y267714D01*
X883855Y267131D01*
X883598Y266703D01*
X878929D01*
X878672Y267131D01*
X878983Y267714D01*
X879327Y268845D01*
X879442Y270022D01*
Y291522D01*
X879327Y292698D01*
X878983Y293829D01*
X878426Y294871D01*
X877677Y295785D01*
X876763Y296535D01*
X875721Y297092D01*
X874943Y297328D01*
Y323090D01*
X875044Y323103D01*
X876017Y323506D01*
X876853Y324147D01*
X877494Y324983D01*
X877897Y325956D01*
X878034Y327000D01*
X877897Y328044D01*
X877494Y329017D01*
X876853Y329853D01*
X876017Y330494D01*
X875044Y330897D01*
X874000Y331034D01*
X872956Y330897D01*
X871983Y330494D01*
X871147Y329853D01*
X870506Y329017D01*
X870103Y328044D01*
X869965Y327000D01*
X870103Y325956D01*
X870506Y324983D01*
X871147Y324147D01*
X871884Y323582D01*
Y297328D01*
X871106Y297092D01*
X870064Y296535D01*
X869150Y295785D01*
X868400Y294871D01*
X867843Y293829D01*
X867500Y292698D01*
X867384Y291522D01*
Y270022D01*
X867500Y268845D01*
X867843Y267714D01*
X868155Y267131D01*
X867898Y266703D01*
X863421D01*
X863164Y267131D01*
X863476Y267714D01*
X863819Y268845D01*
X863935Y270022D01*
Y291522D01*
X863819Y292698D01*
X863476Y293829D01*
X862918Y294871D01*
X862169Y295785D01*
X861255Y296535D01*
X860213Y297092D01*
X859082Y297435D01*
X857905Y297551D01*
X856729Y297435D01*
X855598Y297092D01*
X854556Y296535D01*
X853642Y295785D01*
X852893Y294871D01*
X852335Y293829D01*
X851992Y292698D01*
X851877Y291522D01*
Y270022D01*
X851992Y268845D01*
X852335Y267714D01*
X852647Y267131D01*
X852390Y266703D01*
X847830D01*
X847573Y267131D01*
X847885Y267714D01*
X848228Y268845D01*
X848344Y270022D01*
Y291522D01*
X848228Y292698D01*
X847885Y293829D01*
X847328Y294871D01*
X846578Y295785D01*
X845665Y296535D01*
X844622Y297092D01*
X843491Y297435D01*
X842315Y297551D01*
X841139Y297435D01*
X840008Y297092D01*
X838965Y296535D01*
X838052Y295785D01*
X837302Y294871D01*
X836745Y293829D01*
X836402Y292698D01*
X836286Y291522D01*
Y270022D01*
X836402Y268845D01*
X836745Y267714D01*
X837057Y267131D01*
X836799Y266703D01*
X832229D01*
X831972Y267131D01*
X832283Y267714D01*
X832627Y268845D01*
X832742Y270022D01*
Y291522D01*
X832627Y292698D01*
X832283Y293829D01*
X831726Y294871D01*
X830977Y295785D01*
X830063Y296535D01*
X829021Y297092D01*
X828243Y297328D01*
Y306679D01*
X828853Y307147D01*
X829494Y307983D01*
X829897Y308956D01*
X830035Y310000D01*
X829897Y311044D01*
X829494Y312017D01*
X828853Y312853D01*
X828017Y313494D01*
X827044Y313897D01*
X826000Y314035D01*
X824956Y313897D01*
X823983Y313494D01*
X823147Y312853D01*
X822506Y312017D01*
X822103Y311044D01*
X821966Y310000D01*
X822103Y308956D01*
X822506Y307983D01*
X823147Y307147D01*
X823983Y306506D01*
X824956Y306103D01*
X825184Y306073D01*
Y297328D01*
X824406Y297092D01*
X823364Y296535D01*
X822450Y295785D01*
X821700Y294871D01*
X821143Y293829D01*
X820800Y292698D01*
X820684Y291522D01*
Y270022D01*
X820800Y268845D01*
X821143Y267714D01*
X821455Y267131D01*
X821198Y266703D01*
X816629D01*
X816372Y267131D01*
X816683Y267714D01*
X817027Y268845D01*
X817142Y270022D01*
Y291522D01*
X817027Y292698D01*
X816683Y293829D01*
X816126Y294871D01*
X815377Y295785D01*
X814463Y296535D01*
X813421Y297092D01*
X812290Y297435D01*
X811113Y297551D01*
X809937Y297435D01*
X808806Y297092D01*
X807764Y296535D01*
X806850Y295785D01*
X806100Y294871D01*
X805543Y293829D01*
X805200Y292698D01*
X805084Y291522D01*
Y270022D01*
X805200Y268845D01*
X805543Y267714D01*
X805855Y267131D01*
X805598Y266703D01*
X801029D01*
X800772Y267131D01*
X801083Y267714D01*
X801427Y268845D01*
X801542Y270022D01*
Y291522D01*
X801427Y292698D01*
X801083Y293829D01*
X800526Y294871D01*
X799777Y295785D01*
X798863Y296535D01*
X797821Y297092D01*
X796690Y297435D01*
X795513Y297551D01*
X794337Y297435D01*
X793206Y297092D01*
X792164Y296535D01*
X791250Y295785D01*
X790500Y294871D01*
X789943Y293829D01*
X789600Y292698D01*
X789484Y291522D01*
Y270022D01*
X789600Y268845D01*
X789943Y267714D01*
X790255Y267131D01*
X789998Y266703D01*
X785430D01*
X785174Y267131D01*
X785485Y267714D01*
X785828Y268845D01*
X785944Y270022D01*
Y291522D01*
X785828Y292698D01*
X785485Y293829D01*
X784928Y294871D01*
X784178Y295785D01*
X783264Y296535D01*
X782222Y297092D01*
X781091Y297435D01*
X779915Y297551D01*
X778739Y297435D01*
X777608Y297092D01*
X776565Y296535D01*
X775652Y295785D01*
X774902Y294871D01*
X774345Y293829D01*
X774002Y292698D01*
X773886Y291522D01*
Y270022D01*
X774002Y268845D01*
X774345Y267714D01*
X774656Y267131D01*
X774399Y266703D01*
X765852D01*
Y280772D01*
Y311968D01*
X765736Y312554D01*
X765404Y313050D01*
X764908Y313382D01*
X764323Y313498D01*
X631529D01*
Y628471D01*
X1288471D01*
Y313498D01*
D02*
G37*
%LPC*%
G36*
X1040000Y408788D02*
X1039019Y408659D01*
X1038106Y408281D01*
X1037321Y407679D01*
X1036719Y406894D01*
X1036568Y406529D01*
X939000D01*
X938415Y406413D01*
X937919Y406081D01*
X921532Y389695D01*
X921044Y389897D01*
X920000Y390035D01*
X918956Y389897D01*
X917983Y389494D01*
X917147Y388853D01*
X916506Y388017D01*
X916103Y387044D01*
X915965Y386000D01*
X916103Y384956D01*
X916506Y383983D01*
X917147Y383147D01*
X917983Y382506D01*
X918956Y382103D01*
X920000Y381965D01*
X921044Y382103D01*
X922017Y382506D01*
X922853Y383147D01*
X923494Y383983D01*
X923897Y384956D01*
X924035Y386000D01*
X923897Y387044D01*
X923695Y387532D01*
X939633Y403471D01*
X1036568D01*
X1036719Y403106D01*
X1037321Y402321D01*
X1038106Y401719D01*
X1039019Y401341D01*
X1040000Y401212D01*
X1040981Y401341D01*
X1041894Y401719D01*
X1042679Y402321D01*
X1043281Y403106D01*
X1043659Y404019D01*
X1043788Y405000D01*
X1043659Y405980D01*
X1043281Y406894D01*
X1042679Y407679D01*
X1041894Y408281D01*
X1040981Y408659D01*
X1040000Y408788D01*
D02*
G37*
G36*
X864709Y402155D02*
X863831Y402039D01*
X863013Y401701D01*
X862311Y401162D01*
X861772Y400459D01*
X861433Y399641D01*
X861317Y398764D01*
X861433Y397886D01*
X861772Y397068D01*
X862311Y396366D01*
X863013Y395827D01*
X863831Y395488D01*
X864709Y395373D01*
X865586Y395488D01*
X866404Y395827D01*
X867107Y396366D01*
X867645Y397068D01*
X867984Y397886D01*
X868100Y398764D01*
X867984Y399641D01*
X867645Y400459D01*
X867107Y401162D01*
X866404Y401701D01*
X865586Y402039D01*
X864709Y402155D01*
D02*
G37*
G36*
X1180000Y408788D02*
X1179020Y408659D01*
X1178106Y408281D01*
X1177321Y407679D01*
X1176719Y406894D01*
X1176341Y405980D01*
X1176212Y405000D01*
X1176341Y404019D01*
X1176719Y403106D01*
X1177321Y402321D01*
X1178106Y401719D01*
X1179020Y401341D01*
X1180000Y401212D01*
X1180980Y401341D01*
X1181894Y401719D01*
X1182679Y402321D01*
X1183281Y403106D01*
X1183659Y404019D01*
X1183788Y405000D01*
X1183659Y405980D01*
X1183281Y406894D01*
X1182679Y407679D01*
X1181894Y408281D01*
X1180980Y408659D01*
X1180000Y408788D01*
D02*
G37*
G36*
X934000Y416035D02*
X932956Y415897D01*
X931983Y415494D01*
X931147Y414853D01*
X930506Y414017D01*
X930103Y413044D01*
X929965Y412000D01*
X930103Y410956D01*
X930506Y409983D01*
X931147Y409147D01*
X931983Y408506D01*
X932956Y408103D01*
X934000Y407966D01*
X935044Y408103D01*
X936017Y408506D01*
X936853Y409147D01*
X937494Y409983D01*
X937696Y410471D01*
X1102367D01*
X1106492Y406345D01*
X1106341Y405980D01*
X1106212Y405000D01*
X1106341Y404019D01*
X1106719Y403106D01*
X1107321Y402321D01*
X1108106Y401719D01*
X1109019Y401341D01*
X1110000Y401212D01*
X1110981Y401341D01*
X1111894Y401719D01*
X1112679Y402321D01*
X1113281Y403106D01*
X1113659Y404019D01*
X1113788Y405000D01*
X1113659Y405980D01*
X1113281Y406894D01*
X1112679Y407679D01*
X1111894Y408281D01*
X1110981Y408659D01*
X1110000Y408788D01*
X1109019Y408659D01*
X1108655Y408508D01*
X1104081Y413081D01*
X1103585Y413413D01*
X1103000Y413529D01*
X937696D01*
X937494Y414017D01*
X936853Y414853D01*
X936017Y415494D01*
X935044Y415897D01*
X934000Y416035D01*
D02*
G37*
G36*
X849000Y383788D02*
X848020Y383659D01*
X847106Y383281D01*
X846321Y382679D01*
X845719Y381894D01*
X845341Y380980D01*
X845212Y380000D01*
X845341Y379019D01*
X845719Y378106D01*
X846321Y377321D01*
X847106Y376719D01*
X848020Y376341D01*
X849000Y376212D01*
X849981Y376341D01*
X850894Y376719D01*
X851679Y377321D01*
X852281Y378106D01*
X852659Y379019D01*
X852788Y380000D01*
X852659Y380980D01*
X852281Y381894D01*
X851679Y382679D01*
X850894Y383281D01*
X849981Y383659D01*
X849000Y383788D01*
D02*
G37*
G36*
X760866Y366939D02*
X759512Y366806D01*
X758211Y366411D01*
X757011Y365770D01*
X755960Y364907D01*
X755097Y363855D01*
X754455Y362655D01*
X754061Y361354D01*
X753927Y360000D01*
X754061Y358646D01*
X754455Y357345D01*
X755097Y356145D01*
X755960Y355093D01*
X757011Y354230D01*
X758211Y353589D01*
X759512Y353194D01*
X760866Y353061D01*
X762220Y353194D01*
X763522Y353589D01*
X764721Y354230D01*
X765773Y355093D01*
X766636Y356145D01*
X767277Y357345D01*
X767672Y358646D01*
X767805Y360000D01*
X767672Y361354D01*
X767277Y362655D01*
X766636Y363855D01*
X765773Y364907D01*
X764721Y365770D01*
X763522Y366411D01*
X762220Y366806D01*
X760866Y366939D01*
D02*
G37*
G36*
X719134D02*
X717780Y366806D01*
X716478Y366411D01*
X715279Y365770D01*
X714227Y364907D01*
X713364Y363855D01*
X712723Y362655D01*
X712328Y361354D01*
X712195Y360000D01*
X712328Y358646D01*
X712723Y357345D01*
X713364Y356145D01*
X714227Y355093D01*
X715279Y354230D01*
X716478Y353589D01*
X717780Y353194D01*
X719134Y353061D01*
X720488Y353194D01*
X721789Y353589D01*
X722989Y354230D01*
X724040Y355093D01*
X724903Y356145D01*
X725545Y357345D01*
X725940Y358646D01*
X726073Y360000D01*
X725940Y361354D01*
X725545Y362655D01*
X724903Y363855D01*
X724040Y364907D01*
X722989Y365770D01*
X721789Y366411D01*
X720488Y366806D01*
X719134Y366939D01*
D02*
G37*
G36*
X830866D02*
X829512Y366806D01*
X828211Y366411D01*
X827011Y365770D01*
X825960Y364907D01*
X825097Y363855D01*
X824455Y362655D01*
X824061Y361354D01*
X823927Y360000D01*
X824061Y358646D01*
X824455Y357345D01*
X825097Y356145D01*
X825960Y355093D01*
X827011Y354230D01*
X828211Y353589D01*
X829512Y353194D01*
X830866Y353061D01*
X832220Y353194D01*
X833522Y353589D01*
X834721Y354230D01*
X835773Y355093D01*
X836636Y356145D01*
X837277Y357345D01*
X837672Y358646D01*
X837805Y360000D01*
X837672Y361354D01*
X837277Y362655D01*
X836636Y363855D01*
X835773Y364907D01*
X834721Y365770D01*
X833522Y366411D01*
X832220Y366806D01*
X830866Y366939D01*
D02*
G37*
G36*
X789134D02*
X787780Y366806D01*
X786478Y366411D01*
X785279Y365770D01*
X784227Y364907D01*
X783364Y363855D01*
X782723Y362655D01*
X782328Y361354D01*
X782195Y360000D01*
X782328Y358646D01*
X782723Y357345D01*
X783364Y356145D01*
X784227Y355093D01*
X785279Y354230D01*
X786478Y353589D01*
X787780Y353194D01*
X789134Y353061D01*
X790488Y353194D01*
X791789Y353589D01*
X792989Y354230D01*
X794040Y355093D01*
X794903Y356145D01*
X795545Y357345D01*
X795939Y358646D01*
X796073Y360000D01*
X795939Y361354D01*
X795545Y362655D01*
X794903Y363855D01*
X794040Y364907D01*
X792989Y365770D01*
X791789Y366411D01*
X790488Y366806D01*
X789134Y366939D01*
D02*
G37*
G36*
X1250000Y408788D02*
X1249020Y408659D01*
X1248106Y408281D01*
X1247321Y407679D01*
X1246719Y406894D01*
X1246341Y405980D01*
X1246212Y405000D01*
X1246341Y404019D01*
X1246719Y403106D01*
X1247321Y402321D01*
X1248106Y401719D01*
X1249020Y401341D01*
X1250000Y401212D01*
X1250980Y401341D01*
X1251894Y401719D01*
X1252679Y402321D01*
X1253281Y403106D01*
X1253659Y404019D01*
X1253788Y405000D01*
X1253659Y405980D01*
X1253281Y406894D01*
X1252679Y407679D01*
X1251894Y408281D01*
X1250980Y408659D01*
X1250000Y408788D01*
D02*
G37*
G36*
X833512Y434347D02*
X832531Y434218D01*
X831618Y433840D01*
X830833Y433238D01*
X830231Y432453D01*
X829853Y431539D01*
X829723Y430559D01*
X829853Y429579D01*
X830231Y428665D01*
X830833Y427880D01*
X831618Y427278D01*
X832531Y426900D01*
X833512Y426771D01*
X834492Y426900D01*
X835406Y427278D01*
X836191Y427880D01*
X836793Y428665D01*
X837171Y429579D01*
X837300Y430559D01*
X837171Y431539D01*
X836793Y432453D01*
X836191Y433238D01*
X835406Y433840D01*
X834492Y434218D01*
X833512Y434347D01*
D02*
G37*
G36*
X864709Y432155D02*
X863831Y432039D01*
X863013Y431701D01*
X862311Y431162D01*
X861772Y430459D01*
X861433Y429641D01*
X861317Y428764D01*
X861433Y427886D01*
X861772Y427068D01*
X862311Y426366D01*
X863013Y425827D01*
X863831Y425488D01*
X864709Y425373D01*
X865586Y425488D01*
X866404Y425827D01*
X867107Y426366D01*
X867645Y427068D01*
X867984Y427886D01*
X868100Y428764D01*
X867984Y429641D01*
X867645Y430459D01*
X867107Y431162D01*
X866404Y431701D01*
X865586Y432039D01*
X864709Y432155D01*
D02*
G37*
G36*
X1110000Y501594D02*
X1108956Y501456D01*
X1107983Y501053D01*
X1107147Y500412D01*
X1106506Y499576D01*
X1106103Y498603D01*
X1105966Y497559D01*
X1106103Y496515D01*
X1106506Y495542D01*
X1107147Y494706D01*
X1107983Y494065D01*
X1108471Y493863D01*
Y438432D01*
X1108106Y438281D01*
X1107321Y437679D01*
X1106719Y436894D01*
X1106341Y435981D01*
X1106212Y435000D01*
X1106341Y434020D01*
X1106719Y433106D01*
X1107321Y432321D01*
X1108106Y431719D01*
X1109019Y431341D01*
X1110000Y431212D01*
X1110981Y431341D01*
X1111894Y431719D01*
X1112679Y432321D01*
X1113281Y433106D01*
X1113659Y434020D01*
X1113788Y435000D01*
X1113659Y435981D01*
X1113281Y436894D01*
X1112679Y437679D01*
X1111894Y438281D01*
X1111529Y438432D01*
Y493863D01*
X1112017Y494065D01*
X1112853Y494706D01*
X1113494Y495542D01*
X1113897Y496515D01*
X1114034Y497559D01*
X1113897Y498603D01*
X1113494Y499576D01*
X1112853Y500412D01*
X1112017Y501053D01*
X1111044Y501456D01*
X1110000Y501594D01*
D02*
G37*
G36*
X1040000D02*
X1038956Y501456D01*
X1037983Y501053D01*
X1037147Y500412D01*
X1036506Y499576D01*
X1036103Y498603D01*
X1035966Y497559D01*
X1036103Y496515D01*
X1036506Y495542D01*
X1037147Y494706D01*
X1037983Y494065D01*
X1038471Y493863D01*
Y438432D01*
X1038106Y438281D01*
X1037321Y437679D01*
X1036719Y436894D01*
X1036341Y435981D01*
X1036212Y435000D01*
X1036341Y434020D01*
X1036719Y433106D01*
X1037321Y432321D01*
X1038106Y431719D01*
X1039019Y431341D01*
X1040000Y431212D01*
X1040981Y431341D01*
X1041894Y431719D01*
X1042679Y432321D01*
X1043281Y433106D01*
X1043659Y434020D01*
X1043788Y435000D01*
X1043659Y435981D01*
X1043281Y436894D01*
X1042679Y437679D01*
X1041894Y438281D01*
X1041529Y438432D01*
Y493863D01*
X1042017Y494065D01*
X1042853Y494706D01*
X1043494Y495542D01*
X1043897Y496515D01*
X1044034Y497559D01*
X1043897Y498603D01*
X1043494Y499576D01*
X1042853Y500412D01*
X1042017Y501053D01*
X1041044Y501456D01*
X1040000Y501594D01*
D02*
G37*
G36*
X760000Y456939D02*
X758646Y456806D01*
X757345Y456411D01*
X756145Y455769D01*
X755093Y454907D01*
X754230Y453855D01*
X753589Y452655D01*
X753194Y451354D01*
X753061Y450000D01*
X753194Y448646D01*
X753589Y447345D01*
X754230Y446145D01*
X755093Y445093D01*
X756145Y444231D01*
X757345Y443589D01*
X758646Y443194D01*
X759573Y443103D01*
Y442601D01*
X758839Y442528D01*
X757723Y442190D01*
X756694Y441640D01*
X755793Y440900D01*
X755053Y439998D01*
X754503Y438970D01*
X754164Y437854D01*
X754050Y436693D01*
X754164Y435532D01*
X754503Y434416D01*
X755053Y433387D01*
X755793Y432486D01*
X756694Y431746D01*
X757723Y431196D01*
X758839Y430857D01*
X758997Y430842D01*
Y430339D01*
X758839Y430324D01*
X757723Y429985D01*
X756694Y429435D01*
X755793Y428695D01*
X755053Y427794D01*
X754503Y426765D01*
X754164Y425649D01*
X754050Y424488D01*
X754164Y423327D01*
X754503Y422211D01*
X755053Y421183D01*
X755793Y420281D01*
X756694Y419541D01*
X757723Y418991D01*
X758839Y418653D01*
X760000Y418538D01*
X761161Y418653D01*
X762277Y418991D01*
X763306Y419541D01*
X764207Y420281D01*
X764947Y421183D01*
X765497Y422211D01*
X765836Y423327D01*
X765950Y424488D01*
X765836Y425649D01*
X765497Y426765D01*
X764947Y427794D01*
X764207Y428695D01*
X763306Y429435D01*
X762277Y429985D01*
X761161Y430324D01*
X761003Y430339D01*
Y430842D01*
X761161Y430857D01*
X762277Y431196D01*
X763306Y431746D01*
X764207Y432486D01*
X764947Y433387D01*
X765497Y434416D01*
X765836Y435532D01*
X765950Y436693D01*
X765836Y437854D01*
X765497Y438970D01*
X764947Y439998D01*
X764207Y440900D01*
X763306Y441640D01*
X762277Y442190D01*
X761161Y442528D01*
X760427Y442601D01*
Y443103D01*
X761354Y443194D01*
X762655Y443589D01*
X763855Y444231D01*
X764907Y445093D01*
X765769Y446145D01*
X766411Y447345D01*
X766806Y448646D01*
X766939Y450000D01*
X766806Y451354D01*
X766411Y452655D01*
X765769Y453855D01*
X764907Y454907D01*
X763855Y455769D01*
X762655Y456411D01*
X761354Y456806D01*
X760000Y456939D01*
D02*
G37*
G36*
X833512Y403726D02*
X832737Y403624D01*
X832015Y403325D01*
X831395Y402849D01*
X831262Y402676D01*
X830762D01*
X830629Y402849D01*
X830009Y403325D01*
X829287Y403624D01*
X828512Y403726D01*
X827737Y403624D01*
X827015Y403325D01*
X826395Y402849D01*
X826262Y402676D01*
X825762D01*
X825629Y402849D01*
X825009Y403325D01*
X824287Y403624D01*
X823512Y403726D01*
X822737Y403624D01*
X822015Y403325D01*
X821395Y402849D01*
X820919Y402229D01*
X820620Y401507D01*
X820518Y400732D01*
Y396795D01*
X820620Y396020D01*
X820919Y395298D01*
X821395Y394678D01*
X822015Y394202D01*
X822737Y393903D01*
X823512Y393801D01*
X824287Y393903D01*
X825009Y394202D01*
X825629Y394678D01*
X825762Y394851D01*
X826262D01*
X826395Y394678D01*
X827015Y394202D01*
X827737Y393903D01*
X828512Y393801D01*
X829287Y393903D01*
X830009Y394202D01*
X830629Y394678D01*
X830762Y394851D01*
X831262D01*
X831395Y394678D01*
X832015Y394202D01*
X832737Y393903D01*
X833512Y393801D01*
X834287Y393903D01*
X835009Y394202D01*
X835629Y394678D01*
X836105Y395298D01*
X836404Y396020D01*
X836506Y396795D01*
Y400732D01*
X836404Y401507D01*
X836105Y402229D01*
X835629Y402849D01*
X835009Y403325D01*
X834287Y403624D01*
X833512Y403726D01*
D02*
G37*
G36*
X690000Y438039D02*
X687645Y437884D01*
X685331Y437424D01*
X683097Y436665D01*
X680981Y435622D01*
X679019Y434311D01*
X677245Y432755D01*
X675689Y430981D01*
X674378Y429019D01*
X673335Y426903D01*
X672576Y424669D01*
X672116Y422355D01*
X671961Y420000D01*
X672116Y417646D01*
X672576Y415331D01*
X673335Y413097D01*
X674378Y410981D01*
X675689Y409019D01*
X677245Y407245D01*
X679019Y405689D01*
X680981Y404378D01*
X683097Y403335D01*
X685331Y402576D01*
X687645Y402116D01*
X690000Y401961D01*
X692354Y402116D01*
X694669Y402576D01*
X696903Y403335D01*
X699019Y404378D01*
X700981Y405689D01*
X702755Y407245D01*
X704311Y409019D01*
X705622Y410981D01*
X706666Y413097D01*
X707424Y415331D01*
X707884Y417646D01*
X708039Y420000D01*
X707884Y422355D01*
X707424Y424669D01*
X706666Y426903D01*
X705622Y429019D01*
X704311Y430981D01*
X702755Y432755D01*
X700981Y434311D01*
X699019Y435622D01*
X696903Y436665D01*
X694669Y437424D01*
X692354Y437884D01*
X690000Y438039D01*
D02*
G37*
G36*
X653953Y423953D02*
X646047D01*
Y416047D01*
X653953D01*
Y423953D01*
D02*
G37*
G36*
X817913Y418749D02*
X816933Y418620D01*
X816019Y418241D01*
X815235Y417639D01*
X814633Y416855D01*
X814254Y415941D01*
X814125Y414961D01*
X814254Y413980D01*
X814633Y413066D01*
X815235Y412282D01*
X816019Y411680D01*
X816933Y411301D01*
X817913Y411172D01*
X818894Y411301D01*
X819808Y411680D01*
X820592Y412282D01*
X821194Y413066D01*
X821573Y413980D01*
X821702Y414961D01*
X821573Y415941D01*
X821194Y416855D01*
X820592Y417639D01*
X819808Y418241D01*
X818894Y418620D01*
X817913Y418749D01*
D02*
G37*
G36*
X690866Y366939D02*
X689512Y366806D01*
X688211Y366411D01*
X687011Y365770D01*
X685960Y364907D01*
X685097Y363855D01*
X684455Y362655D01*
X684060Y361354D01*
X683927Y360000D01*
X684060Y358646D01*
X684455Y357345D01*
X685097Y356145D01*
X685960Y355093D01*
X687011Y354230D01*
X688211Y353589D01*
X689512Y353194D01*
X690866Y353061D01*
X692220Y353194D01*
X693522Y353589D01*
X694721Y354230D01*
X695773Y355093D01*
X696636Y356145D01*
X697277Y357345D01*
X697672Y358646D01*
X697805Y360000D01*
X697672Y361354D01*
X697277Y362655D01*
X696636Y363855D01*
X695773Y364907D01*
X694721Y365770D01*
X693522Y366411D01*
X692220Y366806D01*
X690866Y366939D01*
D02*
G37*
G36*
X679843Y336475D02*
X678798Y336338D01*
X677825Y335935D01*
X676990Y335294D01*
X676348Y334458D01*
X675946Y333485D01*
X675808Y332441D01*
X675946Y331397D01*
X676348Y330424D01*
X676990Y329588D01*
X677825Y328947D01*
X678798Y328544D01*
X679843Y328406D01*
X680887Y328544D01*
X681860Y328947D01*
X682695Y329588D01*
X683336Y330424D01*
X683740Y331397D01*
X683877Y332441D01*
X683740Y333485D01*
X683336Y334458D01*
X682695Y335294D01*
X681860Y335935D01*
X680887Y336338D01*
X679843Y336475D01*
D02*
G37*
G36*
X660157D02*
X659113Y336338D01*
X658140Y335935D01*
X657305Y335294D01*
X656664Y334458D01*
X656260Y333485D01*
X656123Y332441D01*
X656260Y331397D01*
X656664Y330424D01*
X657305Y329588D01*
X658140Y328947D01*
X659113Y328544D01*
X660157Y328406D01*
X661202Y328544D01*
X662175Y328947D01*
X663010Y329588D01*
X663652Y330424D01*
X664054Y331397D01*
X664192Y332441D01*
X664054Y333485D01*
X663652Y334458D01*
X663010Y335294D01*
X662175Y335935D01*
X661202Y336338D01*
X660157Y336475D01*
D02*
G37*
G36*
X749843D02*
X748798Y336338D01*
X747825Y335935D01*
X746990Y335294D01*
X746348Y334458D01*
X745946Y333485D01*
X745808Y332441D01*
X745946Y331397D01*
X746348Y330424D01*
X746990Y329588D01*
X747825Y328947D01*
X748798Y328544D01*
X749843Y328406D01*
X750887Y328544D01*
X751860Y328947D01*
X752695Y329588D01*
X753336Y330424D01*
X753740Y331397D01*
X753877Y332441D01*
X753740Y333485D01*
X753336Y334458D01*
X752695Y335294D01*
X751860Y335935D01*
X750887Y336338D01*
X749843Y336475D01*
D02*
G37*
G36*
X730158D02*
X729113Y336338D01*
X728140Y335935D01*
X727305Y335294D01*
X726663Y334458D01*
X726260Y333485D01*
X726123Y332441D01*
X726260Y331397D01*
X726663Y330424D01*
X727305Y329588D01*
X728140Y328947D01*
X729113Y328544D01*
X730158Y328406D01*
X731202Y328544D01*
X732175Y328947D01*
X733010Y329588D01*
X733651Y330424D01*
X734055Y331397D01*
X734192Y332441D01*
X734055Y333485D01*
X733651Y334458D01*
X733010Y335294D01*
X732175Y335935D01*
X731202Y336338D01*
X730158Y336475D01*
D02*
G37*
G36*
X1060000Y329788D02*
X1059019Y329659D01*
X1058106Y329281D01*
X1057321Y328679D01*
X1056719Y327894D01*
X1056341Y326980D01*
X1056212Y326000D01*
X1056341Y325020D01*
X1056719Y324106D01*
X1057321Y323321D01*
X1058106Y322719D01*
X1059019Y322341D01*
X1060000Y322212D01*
X1060981Y322341D01*
X1061894Y322719D01*
X1062679Y323321D01*
X1063281Y324106D01*
X1063659Y325020D01*
X1063788Y326000D01*
X1063659Y326980D01*
X1063281Y327894D01*
X1062679Y328679D01*
X1061894Y329281D01*
X1060981Y329659D01*
X1060000Y329788D01*
D02*
G37*
G36*
X983000Y327788D02*
X982020Y327659D01*
X981106Y327281D01*
X980321Y326679D01*
X979719Y325894D01*
X979341Y324980D01*
X979212Y324000D01*
X979341Y323020D01*
X979719Y322106D01*
X980321Y321321D01*
X981106Y320719D01*
X982020Y320341D01*
X983000Y320212D01*
X983980Y320341D01*
X984894Y320719D01*
X985679Y321321D01*
X986281Y322106D01*
X986659Y323020D01*
X986788Y324000D01*
X986659Y324980D01*
X986281Y325894D01*
X985679Y326679D01*
X984894Y327281D01*
X983980Y327659D01*
X983000Y327788D01*
D02*
G37*
G36*
X952000D02*
X951019Y327659D01*
X950106Y327281D01*
X949321Y326679D01*
X948719Y325894D01*
X948341Y324980D01*
X948212Y324000D01*
X948341Y323020D01*
X948719Y322106D01*
X949321Y321321D01*
X950106Y320719D01*
X951019Y320341D01*
X952000Y320212D01*
X952981Y320341D01*
X953894Y320719D01*
X954679Y321321D01*
X955281Y322106D01*
X955659Y323020D01*
X955788Y324000D01*
X955659Y324980D01*
X955281Y325894D01*
X954679Y326679D01*
X953894Y327281D01*
X952981Y327659D01*
X952000Y327788D01*
D02*
G37*
G36*
X1030000Y328788D02*
X1029020Y328659D01*
X1028106Y328281D01*
X1027321Y327679D01*
X1026719Y326894D01*
X1026341Y325980D01*
X1026212Y325000D01*
X1026341Y324020D01*
X1026719Y323106D01*
X1027321Y322321D01*
X1028106Y321719D01*
X1029020Y321341D01*
X1030000Y321212D01*
X1030980Y321341D01*
X1031894Y321719D01*
X1032679Y322321D01*
X1033281Y323106D01*
X1033659Y324020D01*
X1033788Y325000D01*
X1033659Y325980D01*
X1033281Y326894D01*
X1032679Y327679D01*
X1031894Y328281D01*
X1030980Y328659D01*
X1030000Y328788D01*
D02*
G37*
G36*
X1006000Y327788D02*
X1005019Y327659D01*
X1004106Y327281D01*
X1003321Y326679D01*
X1002719Y325894D01*
X1002341Y324980D01*
X1002212Y324000D01*
X1002341Y323020D01*
X1002719Y322106D01*
X1003321Y321321D01*
X1004106Y320719D01*
X1005019Y320341D01*
X1006000Y320212D01*
X1006981Y320341D01*
X1007894Y320719D01*
X1008679Y321321D01*
X1009281Y322106D01*
X1009659Y323020D01*
X1009788Y324000D01*
X1009659Y324980D01*
X1009281Y325894D01*
X1008679Y326679D01*
X1007894Y327281D01*
X1006981Y327659D01*
X1006000Y327788D01*
D02*
G37*
G36*
X800158Y336475D02*
X799113Y336338D01*
X798140Y335935D01*
X797305Y335294D01*
X796664Y334458D01*
X796260Y333485D01*
X796123Y332441D01*
X796260Y331397D01*
X796664Y330424D01*
X797305Y329588D01*
X798140Y328947D01*
X799113Y328544D01*
X800158Y328406D01*
X801202Y328544D01*
X802175Y328947D01*
X803010Y329588D01*
X803652Y330424D01*
X804055Y331397D01*
X804192Y332441D01*
X804055Y333485D01*
X803652Y334458D01*
X803010Y335294D01*
X802175Y335935D01*
X801202Y336338D01*
X800158Y336475D01*
D02*
G37*
G36*
X1030000Y358788D02*
X1029020Y358659D01*
X1028106Y358281D01*
X1027321Y357679D01*
X1026719Y356894D01*
X1026341Y355980D01*
X1026212Y355000D01*
X1026341Y354019D01*
X1026492Y353655D01*
X1020366Y347529D01*
X864000D01*
X863415Y347413D01*
X862919Y347081D01*
X841366Y325529D01*
X819074D01*
X813695Y330909D01*
X813897Y331397D01*
X814034Y332441D01*
X813897Y333485D01*
X813494Y334458D01*
X812853Y335294D01*
X812017Y335935D01*
X811044Y336338D01*
X810000Y336475D01*
X808956Y336338D01*
X807983Y335935D01*
X807147Y335294D01*
X806506Y334458D01*
X806103Y333485D01*
X805966Y332441D01*
X806103Y331397D01*
X806506Y330424D01*
X807147Y329588D01*
X807983Y328947D01*
X808956Y328544D01*
X810000Y328406D01*
X811044Y328544D01*
X811532Y328746D01*
X817360Y322919D01*
X817856Y322587D01*
X818441Y322471D01*
X842000D01*
X842585Y322587D01*
X843081Y322919D01*
X864633Y344471D01*
X1021000D01*
X1021585Y344587D01*
X1022081Y344919D01*
X1028655Y351492D01*
X1029020Y351341D01*
X1030000Y351212D01*
X1030980Y351341D01*
X1031894Y351719D01*
X1032679Y352321D01*
X1033281Y353106D01*
X1033659Y354019D01*
X1033788Y355000D01*
X1033659Y355980D01*
X1033281Y356894D01*
X1032679Y357679D01*
X1031894Y358281D01*
X1030980Y358659D01*
X1030000Y358788D01*
D02*
G37*
G36*
X1006000Y357788D02*
X1005019Y357659D01*
X1004106Y357281D01*
X1003321Y356679D01*
X1002719Y355894D01*
X1002341Y354980D01*
X1002212Y354000D01*
X1002341Y353019D01*
X1002719Y352106D01*
X1003321Y351321D01*
X1004106Y350719D01*
X1005019Y350341D01*
X1006000Y350212D01*
X1006981Y350341D01*
X1007894Y350719D01*
X1008679Y351321D01*
X1009281Y352106D01*
X1009659Y353019D01*
X1009788Y354000D01*
X1009659Y354980D01*
X1009281Y355894D01*
X1008679Y356679D01*
X1007894Y357281D01*
X1006981Y357659D01*
X1006000Y357788D01*
D02*
G37*
G36*
X649134Y366939D02*
X647780Y366806D01*
X646478Y366411D01*
X645279Y365770D01*
X644227Y364907D01*
X643364Y363855D01*
X642723Y362655D01*
X642328Y361354D01*
X642195Y360000D01*
X642328Y358646D01*
X642723Y357345D01*
X643364Y356145D01*
X644227Y355093D01*
X645279Y354230D01*
X646478Y353589D01*
X647780Y353194D01*
X649134Y353061D01*
X650488Y353194D01*
X651789Y353589D01*
X652989Y354230D01*
X654040Y355093D01*
X654903Y356145D01*
X655545Y357345D01*
X655939Y358646D01*
X656073Y360000D01*
X655939Y361354D01*
X655545Y362655D01*
X654903Y363855D01*
X654040Y364907D01*
X652989Y365770D01*
X651789Y366411D01*
X650488Y366806D01*
X649134Y366939D01*
D02*
G37*
G36*
X1060000Y359788D02*
X1059019Y359659D01*
X1058106Y359281D01*
X1057321Y358679D01*
X1056719Y357894D01*
X1056341Y356980D01*
X1056212Y356000D01*
X1056341Y355019D01*
X1056492Y354655D01*
X1038367Y336529D01*
X868000D01*
X867415Y336413D01*
X866919Y336081D01*
X851367Y320529D01*
X754074D01*
X743695Y330909D01*
X743897Y331397D01*
X744034Y332441D01*
X743897Y333485D01*
X743494Y334458D01*
X742853Y335294D01*
X742017Y335935D01*
X741044Y336338D01*
X740000Y336475D01*
X738956Y336338D01*
X737983Y335935D01*
X737147Y335294D01*
X736506Y334458D01*
X736103Y333485D01*
X735965Y332441D01*
X736103Y331397D01*
X736506Y330424D01*
X737147Y329588D01*
X737983Y328947D01*
X738956Y328544D01*
X740000Y328406D01*
X741044Y328544D01*
X741532Y328746D01*
X752359Y317919D01*
X752856Y317587D01*
X753441Y317471D01*
X852000D01*
X852585Y317587D01*
X853081Y317919D01*
X868633Y333471D01*
X1039000D01*
X1039585Y333587D01*
X1040081Y333919D01*
X1058655Y352492D01*
X1059019Y352341D01*
X1060000Y352212D01*
X1060981Y352341D01*
X1061894Y352719D01*
X1062679Y353321D01*
X1063281Y354106D01*
X1063659Y355019D01*
X1063788Y356000D01*
X1063659Y356980D01*
X1063281Y357894D01*
X1062679Y358679D01*
X1061894Y359281D01*
X1060981Y359659D01*
X1060000Y359788D01*
D02*
G37*
G36*
X983000Y357788D02*
X982020Y357659D01*
X981106Y357281D01*
X980321Y356679D01*
X979719Y355894D01*
X979341Y354980D01*
X979212Y354000D01*
X979341Y353019D01*
X979719Y352106D01*
X980321Y351321D01*
X981106Y350719D01*
X982020Y350341D01*
X983000Y350212D01*
X983980Y350341D01*
X984894Y350719D01*
X985679Y351321D01*
X986281Y352106D01*
X986659Y353019D01*
X986788Y354000D01*
X986659Y354980D01*
X986281Y355894D01*
X985679Y356679D01*
X984894Y357281D01*
X983980Y357659D01*
X983000Y357788D01*
D02*
G37*
G36*
X849000Y353788D02*
X848020Y353659D01*
X847106Y353281D01*
X846321Y352679D01*
X845719Y351894D01*
X845341Y350980D01*
X845212Y350000D01*
X845341Y349020D01*
X845719Y348106D01*
X846321Y347321D01*
X847106Y346719D01*
X848020Y346341D01*
X849000Y346212D01*
X849981Y346341D01*
X850894Y346719D01*
X851679Y347321D01*
X852281Y348106D01*
X852659Y349020D01*
X852788Y350000D01*
X852659Y350980D01*
X852281Y351894D01*
X851679Y352679D01*
X850894Y353281D01*
X849981Y353659D01*
X849000Y353788D01*
D02*
G37*
G36*
X716000Y394035D02*
X714956Y393897D01*
X713983Y393494D01*
X713147Y392853D01*
X712506Y392017D01*
X712103Y391044D01*
X711966Y390000D01*
X712103Y388956D01*
X712506Y387983D01*
X713147Y387147D01*
X713983Y386506D01*
X714956Y386103D01*
X716000Y385965D01*
X717044Y386103D01*
X718017Y386506D01*
X718853Y387147D01*
X719494Y387983D01*
X719696Y388471D01*
X791366D01*
X818313Y361524D01*
Y336137D01*
X817825Y335935D01*
X816990Y335294D01*
X816348Y334458D01*
X815946Y333485D01*
X815808Y332441D01*
X815946Y331397D01*
X816348Y330424D01*
X816990Y329588D01*
X817825Y328947D01*
X818798Y328544D01*
X819843Y328406D01*
X820887Y328544D01*
X821860Y328947D01*
X822695Y329588D01*
X823337Y330424D01*
X823740Y331397D01*
X823877Y332441D01*
X823740Y333485D01*
X823337Y334458D01*
X822695Y335294D01*
X821860Y335935D01*
X821372Y336137D01*
Y362158D01*
X821255Y362743D01*
X820924Y363239D01*
X793081Y391081D01*
X792585Y391413D01*
X792000Y391529D01*
X719696D01*
X719494Y392017D01*
X718853Y392853D01*
X718017Y393494D01*
X717044Y393897D01*
X716000Y394035D01*
D02*
G37*
G36*
X952000Y357788D02*
X951019Y357659D01*
X950106Y357281D01*
X949321Y356679D01*
X948719Y355894D01*
X948341Y354980D01*
X948212Y354000D01*
X948341Y353019D01*
X948719Y352106D01*
X949321Y351321D01*
X950106Y350719D01*
X951019Y350341D01*
X952000Y350212D01*
X952981Y350341D01*
X953894Y350719D01*
X954679Y351321D01*
X955281Y352106D01*
X955659Y353019D01*
X955788Y354000D01*
X955659Y354980D01*
X955281Y355894D01*
X954679Y356679D01*
X953894Y357281D01*
X952981Y357659D01*
X952000Y357788D01*
D02*
G37*
G36*
X799000Y400529D02*
X707000D01*
X706415Y400413D01*
X705919Y400081D01*
X668919Y363081D01*
X668587Y362585D01*
X668471Y362000D01*
Y336137D01*
X667983Y335935D01*
X667147Y335294D01*
X666506Y334458D01*
X666103Y333485D01*
X665966Y332441D01*
X666103Y331397D01*
X666506Y330424D01*
X667147Y329588D01*
X667983Y328947D01*
X668956Y328544D01*
X670000Y328406D01*
X671044Y328544D01*
X672017Y328947D01*
X672853Y329588D01*
X673494Y330424D01*
X673897Y331397D01*
X674035Y332441D01*
X673897Y333485D01*
X673494Y334458D01*
X672853Y335294D01*
X672017Y335935D01*
X671529Y336137D01*
Y361367D01*
X707633Y397471D01*
X798366D01*
X826919Y368919D01*
X827415Y368587D01*
X828000Y368471D01*
X913367D01*
X926492Y355345D01*
X926341Y354980D01*
X926212Y354000D01*
X926341Y353019D01*
X926719Y352106D01*
X927321Y351321D01*
X928106Y350719D01*
X929020Y350341D01*
X930000Y350212D01*
X930980Y350341D01*
X931894Y350719D01*
X932679Y351321D01*
X933281Y352106D01*
X933659Y353019D01*
X933788Y354000D01*
X933659Y354980D01*
X933281Y355894D01*
X932679Y356679D01*
X931894Y357281D01*
X930980Y357659D01*
X930000Y357788D01*
X929020Y357659D01*
X928655Y357508D01*
X915081Y371081D01*
X914585Y371413D01*
X914000Y371529D01*
X828633D01*
X800081Y400081D01*
X799585Y400413D01*
X799000Y400529D01*
D02*
G37*
G36*
X763953Y523953D02*
X756047D01*
Y516047D01*
X763953D01*
Y523953D01*
D02*
G37*
G36*
X1259842Y501594D02*
X1258798Y501456D01*
X1257825Y501053D01*
X1256990Y500412D01*
X1256349Y499576D01*
X1255945Y498603D01*
X1255808Y497559D01*
X1255945Y496515D01*
X1256349Y495542D01*
X1256990Y494706D01*
X1257825Y494065D01*
X1258798Y493662D01*
X1259842Y493525D01*
X1260887Y493662D01*
X1261860Y494065D01*
X1262695Y494706D01*
X1263336Y495542D01*
X1263740Y496515D01*
X1263877Y497559D01*
X1263740Y498603D01*
X1263336Y499576D01*
X1262695Y500412D01*
X1261860Y501053D01*
X1260887Y501456D01*
X1259842Y501594D01*
D02*
G37*
G36*
X901953Y523953D02*
X894047D01*
Y516047D01*
X901953D01*
Y523953D01*
D02*
G37*
G36*
X832953Y524953D02*
X825047D01*
Y517047D01*
X832953D01*
Y524953D01*
D02*
G37*
G36*
X973953Y523953D02*
X966047D01*
Y516047D01*
X973953D01*
Y523953D01*
D02*
G37*
G36*
X1119843Y501594D02*
X1118798Y501456D01*
X1117825Y501053D01*
X1116990Y500412D01*
X1116348Y499576D01*
X1115946Y498603D01*
X1115808Y497559D01*
X1115946Y496515D01*
X1116348Y495542D01*
X1116990Y494706D01*
X1117825Y494065D01*
X1118798Y493662D01*
X1119843Y493525D01*
X1120887Y493662D01*
X1121860Y494065D01*
X1122695Y494706D01*
X1123337Y495542D01*
X1123740Y496515D01*
X1123877Y497559D01*
X1123740Y498603D01*
X1123337Y499576D01*
X1122695Y500412D01*
X1121860Y501053D01*
X1120887Y501456D01*
X1119843Y501594D01*
D02*
G37*
G36*
X1113953Y523953D02*
X1106047D01*
Y518210D01*
X1099076Y511239D01*
X1098744Y510743D01*
X1098628Y510157D01*
Y501255D01*
X1098140Y501053D01*
X1097305Y500412D01*
X1096663Y499576D01*
X1096260Y498603D01*
X1096123Y497559D01*
X1096260Y496515D01*
X1096663Y495542D01*
X1097305Y494706D01*
X1098140Y494065D01*
X1099113Y493662D01*
X1100158Y493525D01*
X1101202Y493662D01*
X1102175Y494065D01*
X1103010Y494706D01*
X1103652Y495542D01*
X1104055Y496515D01*
X1104192Y497559D01*
X1104055Y498603D01*
X1103652Y499576D01*
X1103010Y500412D01*
X1102175Y501053D01*
X1101687Y501255D01*
Y509524D01*
X1108210Y516047D01*
X1113953D01*
Y523953D01*
D02*
G37*
G36*
X1183953D02*
X1176047D01*
Y518210D01*
X1169076Y511239D01*
X1168744Y510743D01*
X1168628Y510157D01*
Y501255D01*
X1168140Y501053D01*
X1167305Y500412D01*
X1166663Y499576D01*
X1166260Y498603D01*
X1166123Y497559D01*
X1166260Y496515D01*
X1166663Y495542D01*
X1167305Y494706D01*
X1168140Y494065D01*
X1169113Y493662D01*
X1170158Y493525D01*
X1171202Y493662D01*
X1172175Y494065D01*
X1173010Y494706D01*
X1173652Y495542D01*
X1174055Y496515D01*
X1174192Y497559D01*
X1174055Y498603D01*
X1173652Y499576D01*
X1173010Y500412D01*
X1172175Y501053D01*
X1171687Y501255D01*
Y509524D01*
X1178210Y516047D01*
X1183953D01*
Y523953D01*
D02*
G37*
G36*
X1253953D02*
X1246047D01*
Y518210D01*
X1239076Y511239D01*
X1238745Y510743D01*
X1238628Y510157D01*
Y501255D01*
X1238140Y501053D01*
X1237305Y500412D01*
X1236664Y499576D01*
X1236260Y498603D01*
X1236123Y497559D01*
X1236260Y496515D01*
X1236664Y495542D01*
X1237305Y494706D01*
X1238140Y494065D01*
X1239113Y493662D01*
X1240158Y493525D01*
X1241202Y493662D01*
X1242175Y494065D01*
X1243010Y494706D01*
X1243651Y495542D01*
X1244055Y496515D01*
X1244192Y497559D01*
X1244055Y498603D01*
X1243651Y499576D01*
X1243010Y500412D01*
X1242175Y501053D01*
X1241687Y501255D01*
Y509524D01*
X1248210Y516047D01*
X1253953D01*
Y523953D01*
D02*
G37*
G36*
X1189843Y501594D02*
X1188798Y501456D01*
X1187825Y501053D01*
X1186990Y500412D01*
X1186349Y499576D01*
X1185946Y498603D01*
X1185808Y497559D01*
X1185946Y496515D01*
X1186349Y495542D01*
X1186990Y494706D01*
X1187825Y494065D01*
X1188798Y493662D01*
X1189843Y493525D01*
X1190887Y493662D01*
X1191860Y494065D01*
X1192695Y494706D01*
X1193336Y495542D01*
X1193740Y496515D01*
X1193877Y497559D01*
X1193740Y498603D01*
X1193336Y499576D01*
X1192695Y500412D01*
X1191860Y501053D01*
X1190887Y501456D01*
X1189843Y501594D01*
D02*
G37*
G36*
X1110000Y578039D02*
X1107646Y577884D01*
X1105331Y577424D01*
X1103097Y576665D01*
X1100981Y575622D01*
X1099019Y574311D01*
X1097245Y572755D01*
X1095689Y570981D01*
X1094378Y569019D01*
X1093334Y566903D01*
X1092576Y564669D01*
X1092116Y562355D01*
X1091961Y560000D01*
X1092116Y557646D01*
X1092576Y555331D01*
X1093334Y553097D01*
X1094378Y550981D01*
X1095689Y549019D01*
X1097245Y547245D01*
X1099019Y545689D01*
X1100981Y544378D01*
X1103097Y543334D01*
X1105331Y542576D01*
X1107646Y542116D01*
X1110000Y541961D01*
X1112354Y542116D01*
X1114669Y542576D01*
X1116903Y543334D01*
X1119019Y544378D01*
X1120981Y545689D01*
X1122755Y547245D01*
X1124311Y549019D01*
X1125622Y550981D01*
X1126665Y553097D01*
X1127424Y555331D01*
X1127884Y557646D01*
X1128039Y560000D01*
X1127884Y562355D01*
X1127424Y564669D01*
X1126665Y566903D01*
X1125622Y569019D01*
X1124311Y570981D01*
X1122755Y572755D01*
X1120981Y574311D01*
X1119019Y575622D01*
X1116903Y576665D01*
X1114669Y577424D01*
X1112354Y577884D01*
X1110000Y578039D01*
D02*
G37*
G36*
X1040000D02*
X1037646Y577884D01*
X1035331Y577424D01*
X1033097Y576665D01*
X1030981Y575622D01*
X1029019Y574311D01*
X1027245Y572755D01*
X1025689Y570981D01*
X1024378Y569019D01*
X1023335Y566903D01*
X1022576Y564669D01*
X1022116Y562355D01*
X1021961Y560000D01*
X1022116Y557646D01*
X1022576Y555331D01*
X1023335Y553097D01*
X1024378Y550981D01*
X1025689Y549019D01*
X1027245Y547245D01*
X1029019Y545689D01*
X1030981Y544378D01*
X1033097Y543334D01*
X1035331Y542576D01*
X1037646Y542116D01*
X1040000Y541961D01*
X1042354Y542116D01*
X1044669Y542576D01*
X1046903Y543334D01*
X1049019Y544378D01*
X1050981Y545689D01*
X1052755Y547245D01*
X1054311Y549019D01*
X1055622Y550981D01*
X1056666Y553097D01*
X1057424Y555331D01*
X1057884Y557646D01*
X1058039Y560000D01*
X1057884Y562355D01*
X1057424Y564669D01*
X1056666Y566903D01*
X1055622Y569019D01*
X1054311Y570981D01*
X1052755Y572755D01*
X1050981Y574311D01*
X1049019Y575622D01*
X1046903Y576665D01*
X1044669Y577424D01*
X1042354Y577884D01*
X1040000Y578039D01*
D02*
G37*
G36*
X1180000D02*
X1177645Y577884D01*
X1175331Y577424D01*
X1173097Y576665D01*
X1170981Y575622D01*
X1169019Y574311D01*
X1167245Y572755D01*
X1165689Y570981D01*
X1164378Y569019D01*
X1163334Y566903D01*
X1162576Y564669D01*
X1162116Y562355D01*
X1161961Y560000D01*
X1162116Y557646D01*
X1162576Y555331D01*
X1163334Y553097D01*
X1164378Y550981D01*
X1165689Y549019D01*
X1167245Y547245D01*
X1169019Y545689D01*
X1170981Y544378D01*
X1173097Y543334D01*
X1175331Y542576D01*
X1177645Y542116D01*
X1180000Y541961D01*
X1182355Y542116D01*
X1184669Y542576D01*
X1186903Y543334D01*
X1189019Y544378D01*
X1190981Y545689D01*
X1192755Y547245D01*
X1194311Y549019D01*
X1195622Y550981D01*
X1196665Y553097D01*
X1197424Y555331D01*
X1197884Y557646D01*
X1198039Y560000D01*
X1197884Y562355D01*
X1197424Y564669D01*
X1196665Y566903D01*
X1195622Y569019D01*
X1194311Y570981D01*
X1192755Y572755D01*
X1190981Y574311D01*
X1189019Y575622D01*
X1186903Y576665D01*
X1184669Y577424D01*
X1182355Y577884D01*
X1180000Y578039D01*
D02*
G37*
G36*
X653953Y563953D02*
X646047D01*
Y556047D01*
X653953D01*
Y563953D01*
D02*
G37*
G36*
X1250000Y578039D02*
X1247645Y577884D01*
X1245331Y577424D01*
X1243097Y576665D01*
X1240981Y575622D01*
X1239019Y574311D01*
X1237245Y572755D01*
X1235689Y570981D01*
X1234378Y569019D01*
X1233335Y566903D01*
X1232576Y564669D01*
X1232116Y562355D01*
X1231961Y560000D01*
X1232116Y557646D01*
X1232576Y555331D01*
X1233335Y553097D01*
X1234378Y550981D01*
X1235689Y549019D01*
X1237245Y547245D01*
X1239019Y545689D01*
X1240981Y544378D01*
X1243097Y543334D01*
X1245331Y542576D01*
X1247645Y542116D01*
X1250000Y541961D01*
X1252355Y542116D01*
X1254669Y542576D01*
X1256903Y543334D01*
X1259019Y544378D01*
X1260981Y545689D01*
X1262755Y547245D01*
X1264311Y549019D01*
X1265622Y550981D01*
X1266665Y553097D01*
X1267424Y555331D01*
X1267884Y557646D01*
X1268039Y560000D01*
X1267884Y562355D01*
X1267424Y564669D01*
X1266665Y566903D01*
X1265622Y569019D01*
X1264311Y570981D01*
X1262755Y572755D01*
X1260981Y574311D01*
X1259019Y575622D01*
X1256903Y576665D01*
X1254669Y577424D01*
X1252355Y577884D01*
X1250000Y578039D01*
D02*
G37*
G36*
X760000D02*
X757646Y577884D01*
X755331Y577424D01*
X753097Y576665D01*
X750981Y575622D01*
X749019Y574311D01*
X747245Y572755D01*
X745689Y570981D01*
X744378Y569019D01*
X743334Y566903D01*
X742576Y564669D01*
X742116Y562355D01*
X741961Y560000D01*
X742116Y557646D01*
X742576Y555331D01*
X743334Y553097D01*
X744378Y550981D01*
X745689Y549019D01*
X747245Y547245D01*
X749019Y545689D01*
X750981Y544378D01*
X753097Y543334D01*
X755331Y542576D01*
X757646Y542116D01*
X760000Y541961D01*
X762355Y542116D01*
X764669Y542576D01*
X766903Y543334D01*
X769019Y544378D01*
X770981Y545689D01*
X772755Y547245D01*
X774311Y549019D01*
X775622Y550981D01*
X776665Y553097D01*
X777424Y555331D01*
X777884Y557646D01*
X778039Y560000D01*
X777884Y562355D01*
X777424Y564669D01*
X776665Y566903D01*
X775622Y569019D01*
X774311Y570981D01*
X772755Y572755D01*
X770981Y574311D01*
X769019Y575622D01*
X766903Y576665D01*
X764669Y577424D01*
X762355Y577884D01*
X760000Y578039D01*
D02*
G37*
G36*
X690000D02*
X687645Y577884D01*
X685331Y577424D01*
X683097Y576665D01*
X680981Y575622D01*
X679019Y574311D01*
X677245Y572755D01*
X675689Y570981D01*
X674378Y569019D01*
X673335Y566903D01*
X672576Y564669D01*
X672116Y562355D01*
X671961Y560000D01*
X672116Y557646D01*
X672576Y555331D01*
X673335Y553097D01*
X674378Y550981D01*
X675689Y549019D01*
X677245Y547245D01*
X679019Y545689D01*
X680981Y544378D01*
X683097Y543334D01*
X685331Y542576D01*
X687645Y542116D01*
X690000Y541961D01*
X692354Y542116D01*
X694669Y542576D01*
X696903Y543334D01*
X699019Y544378D01*
X700981Y545689D01*
X702755Y547245D01*
X704311Y549019D01*
X705622Y550981D01*
X706666Y553097D01*
X707424Y555331D01*
X707884Y557646D01*
X708039Y560000D01*
X707884Y562355D01*
X707424Y564669D01*
X706666Y566903D01*
X705622Y569019D01*
X704311Y570981D01*
X702755Y572755D01*
X700981Y574311D01*
X699019Y575622D01*
X696903Y576665D01*
X694669Y577424D01*
X692354Y577884D01*
X690000Y578039D01*
D02*
G37*
G36*
X830000D02*
X827645Y577884D01*
X825331Y577424D01*
X823097Y576665D01*
X820981Y575622D01*
X819019Y574311D01*
X817245Y572755D01*
X815689Y570981D01*
X814378Y569019D01*
X813334Y566903D01*
X812576Y564669D01*
X812116Y562355D01*
X811961Y560000D01*
X812116Y557646D01*
X812576Y555331D01*
X813334Y553097D01*
X814378Y550981D01*
X815689Y549019D01*
X817245Y547245D01*
X819019Y545689D01*
X820981Y544378D01*
X823097Y543334D01*
X825331Y542576D01*
X827645Y542116D01*
X830000Y541961D01*
X832355Y542116D01*
X834669Y542576D01*
X836903Y543334D01*
X839019Y544378D01*
X840981Y545689D01*
X842755Y547245D01*
X844311Y549019D01*
X845622Y550981D01*
X846665Y553097D01*
X847424Y555331D01*
X847884Y557646D01*
X848039Y560000D01*
X847884Y562355D01*
X847424Y564669D01*
X846665Y566903D01*
X845622Y569019D01*
X844311Y570981D01*
X842755Y572755D01*
X840981Y574311D01*
X839019Y575622D01*
X836903Y576665D01*
X834669Y577424D01*
X832355Y577884D01*
X830000Y578039D01*
D02*
G37*
G36*
X970000D02*
X967645Y577884D01*
X965331Y577424D01*
X963097Y576665D01*
X960981Y575622D01*
X959019Y574311D01*
X957245Y572755D01*
X955689Y570981D01*
X954378Y569019D01*
X953335Y566903D01*
X952576Y564669D01*
X952116Y562355D01*
X951961Y560000D01*
X952116Y557646D01*
X952576Y555331D01*
X953335Y553097D01*
X954378Y550981D01*
X955689Y549019D01*
X957245Y547245D01*
X959019Y545689D01*
X960981Y544378D01*
X963097Y543334D01*
X965331Y542576D01*
X967645Y542116D01*
X970000Y541961D01*
X972355Y542116D01*
X974669Y542576D01*
X976903Y543334D01*
X979019Y544378D01*
X980981Y545689D01*
X982755Y547245D01*
X984311Y549019D01*
X985622Y550981D01*
X986666Y553097D01*
X987424Y555331D01*
X987884Y557646D01*
X988039Y560000D01*
X987884Y562355D01*
X987424Y564669D01*
X986666Y566903D01*
X985622Y569019D01*
X984311Y570981D01*
X982755Y572755D01*
X980981Y574311D01*
X979019Y575622D01*
X976903Y576665D01*
X974669Y577424D01*
X972355Y577884D01*
X970000Y578039D01*
D02*
G37*
G36*
X900000D02*
X897645Y577884D01*
X895331Y577424D01*
X893097Y576665D01*
X890981Y575622D01*
X889019Y574311D01*
X887245Y572755D01*
X885689Y570981D01*
X884378Y569019D01*
X883335Y566903D01*
X882576Y564669D01*
X882116Y562355D01*
X881961Y560000D01*
X882116Y557646D01*
X882576Y555331D01*
X883335Y553097D01*
X884378Y550981D01*
X885689Y549019D01*
X887245Y547245D01*
X889019Y545689D01*
X890981Y544378D01*
X893097Y543334D01*
X895331Y542576D01*
X897645Y542116D01*
X900000Y541961D01*
X902355Y542116D01*
X904669Y542576D01*
X906903Y543334D01*
X909019Y544378D01*
X910981Y545689D01*
X912755Y547245D01*
X914311Y549019D01*
X915622Y550981D01*
X916665Y553097D01*
X917424Y555331D01*
X917884Y557646D01*
X918039Y560000D01*
X917884Y562355D01*
X917424Y564669D01*
X916665Y566903D01*
X915622Y569019D01*
X914311Y570981D01*
X912755Y572755D01*
X910981Y574311D01*
X909019Y575622D01*
X906903Y576665D01*
X904669Y577424D01*
X902355Y577884D01*
X900000Y578039D01*
D02*
G37*
G36*
X1060866Y476939D02*
X1059512Y476806D01*
X1058211Y476411D01*
X1057011Y475770D01*
X1055960Y474907D01*
X1055097Y473855D01*
X1054455Y472655D01*
X1054060Y471354D01*
X1053927Y470000D01*
X1054060Y468646D01*
X1054455Y467345D01*
X1055097Y466145D01*
X1055960Y465093D01*
X1057011Y464230D01*
X1058211Y463589D01*
X1059512Y463194D01*
X1060866Y463061D01*
X1062220Y463194D01*
X1063522Y463589D01*
X1064721Y464230D01*
X1065773Y465093D01*
X1066636Y466145D01*
X1067277Y467345D01*
X1067672Y468646D01*
X1067805Y470000D01*
X1067672Y471354D01*
X1067277Y472655D01*
X1066636Y473855D01*
X1065773Y474907D01*
X1064721Y475770D01*
X1063522Y476411D01*
X1062220Y476806D01*
X1060866Y476939D01*
D02*
G37*
G36*
X1019134D02*
X1017780Y476806D01*
X1016478Y476411D01*
X1015279Y475770D01*
X1014227Y474907D01*
X1013364Y473855D01*
X1012723Y472655D01*
X1012328Y471354D01*
X1012195Y470000D01*
X1012328Y468646D01*
X1012723Y467345D01*
X1013364Y466145D01*
X1014227Y465093D01*
X1015279Y464230D01*
X1016478Y463589D01*
X1017780Y463194D01*
X1019134Y463061D01*
X1020488Y463194D01*
X1021789Y463589D01*
X1022989Y464230D01*
X1024040Y465093D01*
X1024903Y466145D01*
X1025545Y467345D01*
X1025939Y468646D01*
X1026073Y470000D01*
X1025939Y471354D01*
X1025545Y472655D01*
X1024903Y473855D01*
X1024040Y474907D01*
X1022989Y475770D01*
X1021789Y476411D01*
X1020488Y476806D01*
X1019134Y476939D01*
D02*
G37*
G36*
X1089134D02*
X1087780Y476806D01*
X1086478Y476411D01*
X1085279Y475770D01*
X1084227Y474907D01*
X1083364Y473855D01*
X1082723Y472655D01*
X1082328Y471354D01*
X1082195Y470000D01*
X1082328Y468646D01*
X1082723Y467345D01*
X1083364Y466145D01*
X1084227Y465093D01*
X1085279Y464230D01*
X1086478Y463589D01*
X1087780Y463194D01*
X1089134Y463061D01*
X1090488Y463194D01*
X1091789Y463589D01*
X1092989Y464230D01*
X1094040Y465093D01*
X1094903Y466145D01*
X1095545Y467345D01*
X1095940Y468646D01*
X1096073Y470000D01*
X1095940Y471354D01*
X1095545Y472655D01*
X1094903Y473855D01*
X1094040Y474907D01*
X1092989Y475770D01*
X1091789Y476411D01*
X1090488Y476806D01*
X1089134Y476939D01*
D02*
G37*
G36*
X1159134D02*
X1157780Y476806D01*
X1156478Y476411D01*
X1155279Y475770D01*
X1154227Y474907D01*
X1153364Y473855D01*
X1152723Y472655D01*
X1152328Y471354D01*
X1152195Y470000D01*
X1152328Y468646D01*
X1152723Y467345D01*
X1153364Y466145D01*
X1154227Y465093D01*
X1155279Y464230D01*
X1156478Y463589D01*
X1157780Y463194D01*
X1159134Y463061D01*
X1160488Y463194D01*
X1161789Y463589D01*
X1162989Y464230D01*
X1164040Y465093D01*
X1164903Y466145D01*
X1165545Y467345D01*
X1165940Y468646D01*
X1166073Y470000D01*
X1165940Y471354D01*
X1165545Y472655D01*
X1164903Y473855D01*
X1164040Y474907D01*
X1162989Y475770D01*
X1161789Y476411D01*
X1160488Y476806D01*
X1159134Y476939D01*
D02*
G37*
G36*
X1130866D02*
X1129512Y476806D01*
X1128211Y476411D01*
X1127011Y475770D01*
X1125960Y474907D01*
X1125097Y473855D01*
X1124455Y472655D01*
X1124061Y471354D01*
X1123927Y470000D01*
X1124061Y468646D01*
X1124455Y467345D01*
X1125097Y466145D01*
X1125960Y465093D01*
X1127011Y464230D01*
X1128211Y463589D01*
X1129512Y463194D01*
X1130866Y463061D01*
X1132220Y463194D01*
X1133522Y463589D01*
X1134721Y464230D01*
X1135773Y465093D01*
X1136636Y466145D01*
X1137277Y467345D01*
X1137672Y468646D01*
X1137805Y470000D01*
X1137672Y471354D01*
X1137277Y472655D01*
X1136636Y473855D01*
X1135773Y474907D01*
X1134721Y475770D01*
X1133522Y476411D01*
X1132220Y476806D01*
X1130866Y476939D01*
D02*
G37*
G36*
X1250000Y501594D02*
X1248956Y501456D01*
X1247983Y501053D01*
X1247147Y500412D01*
X1246506Y499576D01*
X1246103Y498603D01*
X1245965Y497559D01*
X1246103Y496515D01*
X1246506Y495542D01*
X1247147Y494706D01*
X1247983Y494065D01*
X1248471Y493863D01*
Y438432D01*
X1248106Y438281D01*
X1247321Y437679D01*
X1246719Y436894D01*
X1246341Y435981D01*
X1246212Y435000D01*
X1246341Y434020D01*
X1246719Y433106D01*
X1247321Y432321D01*
X1248106Y431719D01*
X1249020Y431341D01*
X1250000Y431212D01*
X1250980Y431341D01*
X1251894Y431719D01*
X1252679Y432321D01*
X1253281Y433106D01*
X1253659Y434020D01*
X1253788Y435000D01*
X1253659Y435981D01*
X1253281Y436894D01*
X1252679Y437679D01*
X1251894Y438281D01*
X1251529Y438432D01*
Y493863D01*
X1252017Y494065D01*
X1252853Y494706D01*
X1253494Y495542D01*
X1253897Y496515D01*
X1254035Y497559D01*
X1253897Y498603D01*
X1253494Y499576D01*
X1252853Y500412D01*
X1252017Y501053D01*
X1251044Y501456D01*
X1250000Y501594D01*
D02*
G37*
G36*
X1180000D02*
X1178956Y501456D01*
X1177983Y501053D01*
X1177147Y500412D01*
X1176506Y499576D01*
X1176103Y498603D01*
X1175965Y497559D01*
X1176103Y496515D01*
X1176506Y495542D01*
X1177147Y494706D01*
X1177983Y494065D01*
X1178471Y493863D01*
Y438432D01*
X1178106Y438281D01*
X1177321Y437679D01*
X1176719Y436894D01*
X1176341Y435981D01*
X1176212Y435000D01*
X1176341Y434020D01*
X1176719Y433106D01*
X1177321Y432321D01*
X1178106Y431719D01*
X1179020Y431341D01*
X1180000Y431212D01*
X1180980Y431341D01*
X1181894Y431719D01*
X1182679Y432321D01*
X1183281Y433106D01*
X1183659Y434020D01*
X1183788Y435000D01*
X1183659Y435981D01*
X1183281Y436894D01*
X1182679Y437679D01*
X1181894Y438281D01*
X1181529Y438432D01*
Y493863D01*
X1182017Y494065D01*
X1182853Y494706D01*
X1183494Y495542D01*
X1183897Y496515D01*
X1184035Y497559D01*
X1183897Y498603D01*
X1183494Y499576D01*
X1182853Y500412D01*
X1182017Y501053D01*
X1181044Y501456D01*
X1180000Y501594D01*
D02*
G37*
G36*
X897874Y448553D02*
X893937D01*
X893162Y448451D01*
X892440Y448152D01*
X891820Y447676D01*
X891344Y447056D01*
X891045Y446334D01*
X890943Y445559D01*
X891045Y444784D01*
X891344Y444062D01*
X891820Y443442D01*
X891993Y443309D01*
Y442809D01*
X891820Y442676D01*
X891344Y442056D01*
X891045Y441334D01*
X890943Y440559D01*
X891045Y439784D01*
X891344Y439062D01*
X891820Y438442D01*
X891993Y438309D01*
Y437809D01*
X891820Y437676D01*
X891344Y437056D01*
X891045Y436334D01*
X890943Y435559D01*
X891045Y434784D01*
X891344Y434062D01*
X891820Y433442D01*
X892440Y432966D01*
X893162Y432667D01*
X893937Y432565D01*
X897874D01*
X898649Y432667D01*
X899371Y432966D01*
X899991Y433442D01*
X900467Y434062D01*
X900766Y434784D01*
X900868Y435559D01*
X900766Y436334D01*
X900467Y437056D01*
X899991Y437676D01*
X899818Y437809D01*
Y438309D01*
X899991Y438442D01*
X900467Y439062D01*
X900766Y439784D01*
X900868Y440559D01*
X900766Y441334D01*
X900467Y442056D01*
X899991Y442676D01*
X899818Y442809D01*
Y443309D01*
X899991Y443442D01*
X900467Y444062D01*
X900766Y444784D01*
X900868Y445559D01*
X900766Y446334D01*
X900467Y447056D01*
X899991Y447676D01*
X899371Y448152D01*
X898649Y448451D01*
X897874Y448553D01*
D02*
G37*
G36*
X833512Y464347D02*
X832531Y464218D01*
X831618Y463840D01*
X830833Y463238D01*
X830231Y462453D01*
X829853Y461540D01*
X829723Y460559D01*
X829853Y459579D01*
X830231Y458665D01*
X830833Y457880D01*
X831618Y457278D01*
X832531Y456900D01*
X833512Y456771D01*
X834492Y456900D01*
X835406Y457278D01*
X836191Y457880D01*
X836793Y458665D01*
X837171Y459579D01*
X837300Y460559D01*
X837171Y461540D01*
X836793Y462453D01*
X836191Y463238D01*
X835406Y463840D01*
X834492Y464218D01*
X833512Y464347D01*
D02*
G37*
G36*
X817913Y448749D02*
X816933Y448620D01*
X816019Y448241D01*
X815235Y447639D01*
X814633Y446855D01*
X814254Y445941D01*
X814125Y444961D01*
X814254Y443980D01*
X814633Y443067D01*
X815235Y442282D01*
X816019Y441680D01*
X816933Y441301D01*
X817913Y441172D01*
X818894Y441301D01*
X819808Y441680D01*
X820592Y442282D01*
X821194Y443067D01*
X821573Y443980D01*
X821702Y444961D01*
X821573Y445941D01*
X821194Y446855D01*
X820592Y447639D01*
X819808Y448241D01*
X818894Y448620D01*
X817913Y448749D01*
D02*
G37*
G36*
X848512Y480147D02*
X847634Y480032D01*
X846816Y479693D01*
X846114Y479154D01*
X845575Y478451D01*
X845236Y477634D01*
X845121Y476756D01*
X845236Y475878D01*
X845575Y475060D01*
X846114Y474358D01*
X846816Y473819D01*
X847634Y473480D01*
X848512Y473365D01*
X849389Y473480D01*
X850207Y473819D01*
X850910Y474358D01*
X851449Y475060D01*
X851787Y475878D01*
X851903Y476756D01*
X851787Y477634D01*
X851449Y478451D01*
X850910Y479154D01*
X850207Y479693D01*
X849389Y480032D01*
X848512Y480147D01*
D02*
G37*
G36*
X818512D02*
X817634Y480032D01*
X816816Y479693D01*
X816114Y479154D01*
X815575Y478451D01*
X815236Y477634D01*
X815121Y476756D01*
X815236Y475878D01*
X815575Y475060D01*
X816114Y474358D01*
X816816Y473819D01*
X817634Y473480D01*
X818512Y473365D01*
X819390Y473480D01*
X820207Y473819D01*
X820910Y474358D01*
X821449Y475060D01*
X821787Y475878D01*
X821903Y476756D01*
X821787Y477634D01*
X821449Y478451D01*
X820910Y479154D01*
X820207Y479693D01*
X819390Y480032D01*
X818512Y480147D01*
D02*
G37*
G36*
X653953Y493953D02*
X646047D01*
Y486047D01*
X653953D01*
Y493953D01*
D02*
G37*
G36*
X1049842Y501594D02*
X1048798Y501456D01*
X1047825Y501053D01*
X1046990Y500412D01*
X1046348Y499576D01*
X1045945Y498603D01*
X1045808Y497559D01*
X1045945Y496515D01*
X1046348Y495542D01*
X1046990Y494706D01*
X1047825Y494065D01*
X1048798Y493662D01*
X1049842Y493525D01*
X1050887Y493662D01*
X1051860Y494065D01*
X1052695Y494706D01*
X1053337Y495542D01*
X1053740Y496515D01*
X1053877Y497559D01*
X1053740Y498603D01*
X1053337Y499576D01*
X1052695Y500412D01*
X1051860Y501053D01*
X1050887Y501456D01*
X1049842Y501594D01*
D02*
G37*
G36*
X1043953Y523953D02*
X1036047D01*
Y518210D01*
X1029076Y511239D01*
X1028745Y510743D01*
X1028628Y510157D01*
Y501255D01*
X1028140Y501053D01*
X1027305Y500412D01*
X1026663Y499576D01*
X1026260Y498603D01*
X1026123Y497559D01*
X1026260Y496515D01*
X1026663Y495542D01*
X1027305Y494706D01*
X1028140Y494065D01*
X1029113Y493662D01*
X1030157Y493525D01*
X1031202Y493662D01*
X1032175Y494065D01*
X1033010Y494706D01*
X1033652Y495542D01*
X1034054Y496515D01*
X1034192Y497559D01*
X1034054Y498603D01*
X1033652Y499576D01*
X1033010Y500412D01*
X1032175Y501053D01*
X1031687Y501255D01*
Y509524D01*
X1038210Y516047D01*
X1043953D01*
Y523953D01*
D02*
G37*
G36*
X1229134Y476939D02*
X1227780Y476806D01*
X1226478Y476411D01*
X1225279Y475770D01*
X1224227Y474907D01*
X1223364Y473855D01*
X1222723Y472655D01*
X1222328Y471354D01*
X1222195Y470000D01*
X1222328Y468646D01*
X1222723Y467345D01*
X1223364Y466145D01*
X1224227Y465093D01*
X1225279Y464230D01*
X1226478Y463589D01*
X1227780Y463194D01*
X1229134Y463061D01*
X1230488Y463194D01*
X1231789Y463589D01*
X1232989Y464230D01*
X1234040Y465093D01*
X1234903Y466145D01*
X1235545Y467345D01*
X1235940Y468646D01*
X1236073Y470000D01*
X1235940Y471354D01*
X1235545Y472655D01*
X1234903Y473855D01*
X1234040Y474907D01*
X1232989Y475770D01*
X1231789Y476411D01*
X1230488Y476806D01*
X1229134Y476939D01*
D02*
G37*
G36*
X1200866D02*
X1199512Y476806D01*
X1198211Y476411D01*
X1197011Y475770D01*
X1195960Y474907D01*
X1195097Y473855D01*
X1194455Y472655D01*
X1194061Y471354D01*
X1193927Y470000D01*
X1194061Y468646D01*
X1194455Y467345D01*
X1195097Y466145D01*
X1195960Y465093D01*
X1197011Y464230D01*
X1198211Y463589D01*
X1199512Y463194D01*
X1200866Y463061D01*
X1202220Y463194D01*
X1203522Y463589D01*
X1204721Y464230D01*
X1205773Y465093D01*
X1206636Y466145D01*
X1207277Y467345D01*
X1207672Y468646D01*
X1207805Y470000D01*
X1207672Y471354D01*
X1207277Y472655D01*
X1206636Y473855D01*
X1205773Y474907D01*
X1204721Y475770D01*
X1203522Y476411D01*
X1202220Y476806D01*
X1200866Y476939D01*
D02*
G37*
G36*
X1270866D02*
X1269512Y476806D01*
X1268211Y476411D01*
X1267011Y475770D01*
X1265960Y474907D01*
X1265097Y473855D01*
X1264455Y472655D01*
X1264060Y471354D01*
X1263927Y470000D01*
X1264060Y468646D01*
X1264455Y467345D01*
X1265097Y466145D01*
X1265960Y465093D01*
X1267011Y464230D01*
X1268211Y463589D01*
X1269512Y463194D01*
X1270866Y463061D01*
X1272220Y463194D01*
X1273522Y463589D01*
X1274721Y464230D01*
X1275773Y465093D01*
X1276636Y466145D01*
X1277277Y467345D01*
X1277672Y468646D01*
X1277805Y470000D01*
X1277672Y471354D01*
X1277277Y472655D01*
X1276636Y473855D01*
X1275773Y474907D01*
X1274721Y475770D01*
X1273522Y476411D01*
X1272220Y476806D01*
X1270866Y476939D01*
D02*
G37*
G36*
X690000Y508039D02*
X687645Y507884D01*
X685331Y507424D01*
X683097Y506666D01*
X680981Y505622D01*
X679019Y504311D01*
X677245Y502755D01*
X675689Y500981D01*
X674378Y499019D01*
X673335Y496903D01*
X672576Y494669D01*
X672116Y492354D01*
X671961Y490000D01*
X672116Y487645D01*
X672576Y485331D01*
X673335Y483097D01*
X674378Y480981D01*
X675689Y479019D01*
X677245Y477245D01*
X679019Y475689D01*
X680981Y474378D01*
X683097Y473335D01*
X685331Y472576D01*
X687645Y472116D01*
X690000Y471961D01*
X692354Y472116D01*
X694669Y472576D01*
X696903Y473335D01*
X699019Y474378D01*
X700981Y475689D01*
X702755Y477245D01*
X704311Y479019D01*
X705622Y480981D01*
X706666Y483097D01*
X707424Y485331D01*
X707884Y487645D01*
X708039Y490000D01*
X707884Y492354D01*
X707424Y494669D01*
X706666Y496903D01*
X705622Y499019D01*
X704311Y500981D01*
X702755Y502755D01*
X700981Y504311D01*
X699019Y505622D01*
X696903Y506666D01*
X694669Y507424D01*
X692354Y507884D01*
X690000Y508039D01*
D02*
G37*
G36*
X760000Y475320D02*
X758839Y475206D01*
X757723Y474867D01*
X756694Y474317D01*
X755793Y473577D01*
X755053Y472676D01*
X754503Y471647D01*
X754164Y470531D01*
X754050Y469370D01*
X754164Y468209D01*
X754503Y467093D01*
X755053Y466065D01*
X755793Y465163D01*
X756694Y464423D01*
X757723Y463873D01*
X758839Y463534D01*
X760000Y463420D01*
X761161Y463534D01*
X762277Y463873D01*
X763306Y464423D01*
X764207Y465163D01*
X764947Y466065D01*
X765497Y467093D01*
X765836Y468209D01*
X765950Y469370D01*
X765836Y470531D01*
X765497Y471647D01*
X764947Y472676D01*
X764207Y473577D01*
X763306Y474317D01*
X762277Y474867D01*
X761161Y475206D01*
X760000Y475320D01*
D02*
G37*
%LPD*%
D10*
X904713Y280772D02*
D03*
X889113D02*
D03*
X857905D02*
D03*
X842315D02*
D03*
X826713D02*
D03*
X811113D02*
D03*
X795513D02*
D03*
X873413D02*
D03*
X779915D02*
D03*
X920301D02*
D03*
X1013799D02*
D03*
X935899D02*
D03*
X951499D02*
D03*
X967099D02*
D03*
X982701D02*
D03*
X998291D02*
D03*
X1029499D02*
D03*
X1045099D02*
D03*
X1060687D02*
D03*
X1154185D02*
D03*
X1076285D02*
D03*
X1091885D02*
D03*
X1107485D02*
D03*
X1123087D02*
D03*
X1138677D02*
D03*
X1169885D02*
D03*
X1185485D02*
D03*
X1201071D02*
D03*
D11*
X716000Y390000D02*
X792000D01*
X819843Y362158D01*
Y332441D02*
Y362158D01*
X670000Y332441D02*
Y362000D01*
X707000Y399000D01*
X799000D01*
X828000Y370000D01*
X1030157Y497559D02*
Y510157D01*
X1040000Y520000D01*
X1100158Y497559D02*
Y510157D01*
X1110000Y520000D01*
X1170158Y497559D02*
Y510157D01*
X1180000Y520000D01*
X1240158Y497559D02*
Y510157D01*
X1250000Y520000D01*
X1040000Y435000D02*
Y497559D01*
X1110000Y435000D02*
Y497559D01*
X1180000Y435000D02*
Y497559D01*
X1250000Y435000D02*
Y497559D01*
X935899Y280772D02*
Y318101D01*
X930000Y324000D02*
X935899Y318101D01*
X826713Y280772D02*
Y308713D01*
X826000Y310000D02*
X826713Y308713D01*
X934000Y412000D02*
X1103000D01*
X1110000Y405000D01*
X939000D02*
X1040000D01*
X920000Y386000D02*
X939000Y405000D01*
X873413Y280772D02*
Y326413D01*
X874000Y327000D01*
X810000Y332441D02*
X818441Y324000D01*
X828000Y370000D02*
X914000D01*
X930000Y354000D01*
X818441Y324000D02*
X842000D01*
X864000Y346000D01*
X1021000D01*
X1030000Y355000D01*
X1039000Y335000D02*
X1060000Y356000D01*
X868000Y335000D02*
X1039000D01*
X852000Y319000D02*
X868000Y335000D01*
X753441Y319000D02*
X852000D01*
X740000Y332441D02*
X753441Y319000D01*
D12*
X1030000Y325000D02*
D03*
Y355000D02*
D03*
X1060000Y326000D02*
D03*
Y356000D02*
D03*
X930000Y324000D02*
D03*
Y354000D02*
D03*
X1006000D02*
D03*
Y324000D02*
D03*
X952000Y354000D02*
D03*
Y324000D02*
D03*
X983000Y354000D02*
D03*
Y324000D02*
D03*
X1180000Y435000D02*
D03*
Y405000D02*
D03*
X817913Y414961D02*
D03*
Y444961D02*
D03*
X1040000Y435000D02*
D03*
Y405000D02*
D03*
X833512Y460559D02*
D03*
Y430559D02*
D03*
X849000Y350000D02*
D03*
Y380000D02*
D03*
X1110000Y435000D02*
D03*
Y405000D02*
D03*
X1250000Y435000D02*
D03*
Y405000D02*
D03*
D13*
X650000Y420000D02*
D03*
Y490000D02*
D03*
Y560000D02*
D03*
X970000Y520000D02*
D03*
X829000Y521000D02*
D03*
X898000Y520000D02*
D03*
X1180000D02*
D03*
X1110000D02*
D03*
X1040000D02*
D03*
X760000D02*
D03*
D14*
X823512Y398764D02*
D03*
X833512D02*
D03*
D15*
X828512D02*
D03*
D16*
X864709Y428764D02*
D03*
Y398764D02*
D03*
X848512Y476756D02*
D03*
X818512D02*
D03*
D17*
X895905Y435559D02*
D03*
Y445559D02*
D03*
D18*
Y440559D02*
D03*
D19*
X819843Y332441D02*
D03*
X800158D02*
D03*
X810000D02*
D03*
X749843D02*
D03*
X730158D02*
D03*
X740000D02*
D03*
X679843D02*
D03*
X660157D02*
D03*
X670000D02*
D03*
X760000Y450000D02*
D03*
X1170158Y497559D02*
D03*
X1189843D02*
D03*
X1180000D02*
D03*
X1100158D02*
D03*
X1119843D02*
D03*
X1110000D02*
D03*
X1030157D02*
D03*
X1049842D02*
D03*
X1040000D02*
D03*
X1240158D02*
D03*
X1259842D02*
D03*
X1250000D02*
D03*
X716000Y390000D02*
D03*
X826000Y310000D02*
D03*
X934000Y412000D02*
D03*
X920000Y386000D02*
D03*
X874000Y327000D02*
D03*
D20*
X789134Y360000D02*
D03*
X830866D02*
D03*
X719134D02*
D03*
X760866D02*
D03*
X649134D02*
D03*
X690866D02*
D03*
X1200866Y470000D02*
D03*
X1159134D02*
D03*
X1130866D02*
D03*
X1089134D02*
D03*
X1060866D02*
D03*
X1019134D02*
D03*
X1270866D02*
D03*
X1229134D02*
D03*
D21*
X760000Y424488D02*
D03*
Y436693D02*
D03*
Y469370D02*
D03*
D22*
X1250000Y520000D02*
D03*
M02*
