G04 Layer_Color=255*
%FSLAX25Y25*%
%MOIN*%
G70*
G01*
G75*
%ADD10O,0.10000X0.31500*%
%ADD12C,0.06000*%
%ADD13R,0.05906X0.05906*%
%ADD14C,0.11811*%
%ADD15C,0.05512*%
%ADD16C,0.09843*%
%ADD17O,0.07874X0.03937*%
%ADD18O,0.07874X0.03937*%
%ADD19R,0.05906X0.05906*%
%ADD20C,0.04724*%
%ADD21O,0.03937X0.07874*%
%ADD22O,0.03937X0.07874*%
D10*
X1201071Y280772D02*
D03*
X1185485D02*
D03*
X1169885D02*
D03*
X1138677D02*
D03*
X1123087D02*
D03*
X1107485D02*
D03*
X1091885D02*
D03*
X1076285D02*
D03*
X1154185D02*
D03*
X1060687D02*
D03*
X1045099D02*
D03*
X1029499D02*
D03*
X998291D02*
D03*
X982701D02*
D03*
X967099D02*
D03*
X951499D02*
D03*
X935899D02*
D03*
X1013799D02*
D03*
X920301D02*
D03*
X779915D02*
D03*
X873413D02*
D03*
X795513D02*
D03*
X811113D02*
D03*
X826713D02*
D03*
X842315D02*
D03*
X857905D02*
D03*
X889113D02*
D03*
X904713D02*
D03*
D12*
X874000Y327000D02*
D03*
X920000Y386000D02*
D03*
X934000Y412000D02*
D03*
X826000Y310000D02*
D03*
X716000Y390000D02*
D03*
X1250000Y497559D02*
D03*
X1259842D02*
D03*
X1240158D02*
D03*
X1040000D02*
D03*
X1049842D02*
D03*
X1030157D02*
D03*
X1110000D02*
D03*
X1119843D02*
D03*
X1100158D02*
D03*
X1180000D02*
D03*
X1189843D02*
D03*
X1170158D02*
D03*
X760000Y450000D02*
D03*
X670000Y332441D02*
D03*
X660157D02*
D03*
X679843D02*
D03*
X740000D02*
D03*
X730158D02*
D03*
X749843D02*
D03*
X810000D02*
D03*
X800158D02*
D03*
X819843D02*
D03*
D13*
X1250000Y520000D02*
D03*
D14*
X1229134Y470000D02*
D03*
X1270866D02*
D03*
X1019134D02*
D03*
X1060866D02*
D03*
X1089134D02*
D03*
X1130866D02*
D03*
X1159134D02*
D03*
X1200866D02*
D03*
X690866Y360000D02*
D03*
X649134D02*
D03*
X760866D02*
D03*
X719134D02*
D03*
X830866D02*
D03*
X789134D02*
D03*
D15*
X1250000Y405000D02*
D03*
Y435000D02*
D03*
X1110000Y405000D02*
D03*
Y435000D02*
D03*
X849000Y380000D02*
D03*
Y350000D02*
D03*
X833512Y430559D02*
D03*
Y460559D02*
D03*
X1040000Y405000D02*
D03*
Y435000D02*
D03*
X817913Y444961D02*
D03*
Y414961D02*
D03*
X1180000Y405000D02*
D03*
Y435000D02*
D03*
X983000Y324000D02*
D03*
Y354000D02*
D03*
X952000Y324000D02*
D03*
Y354000D02*
D03*
X1006000Y324000D02*
D03*
Y354000D02*
D03*
X930000D02*
D03*
Y324000D02*
D03*
X1060000Y356000D02*
D03*
Y326000D02*
D03*
X1030000Y355000D02*
D03*
Y325000D02*
D03*
D16*
X760000Y469370D02*
D03*
Y436693D02*
D03*
Y424488D02*
D03*
D17*
X895905Y445559D02*
D03*
Y435559D02*
D03*
D18*
Y440559D02*
D03*
D19*
X760000Y520000D02*
D03*
X1040000D02*
D03*
X1110000D02*
D03*
X1180000D02*
D03*
X898000D02*
D03*
X829000Y521000D02*
D03*
X970000Y520000D02*
D03*
X650000Y560000D02*
D03*
Y490000D02*
D03*
Y420000D02*
D03*
D20*
X818512Y476756D02*
D03*
X848512D02*
D03*
X864709Y398764D02*
D03*
Y428764D02*
D03*
D21*
X833512Y398764D02*
D03*
X823512D02*
D03*
D22*
X828512D02*
D03*
M02*
