M48
;Layer_Color=9474304
;FILE_FORMAT=2:5
INCH,LZ
;TYPE=PLATED
T1F00S00C0.02756
T2F00S00C0.03000
T3F00S00C0.03346
T4F00S00C0.03543
T5F00S00C0.03937
T6F00S00C0.05906
T7F00S00C0.08661
T8F00S00C0.11811
%
T01
X0864709Y0398764
Y0428764
X0848512Y0476756
X0818512
T02
X0826Y031
X0716Y039
X092Y0386
X0934Y0412
X0874Y0327
T03
X0849Y035
Y038
X0817913Y0414961
Y0444961
X0833512Y0430559
Y0460559
X093Y0354
Y0324
X0952
Y0354
X0983
X1006
X103Y0355
Y0325
X1006Y0324
X0983
X106Y0326
Y0356
X104Y0405
Y0435
X111
Y0405
X118
Y0435
X125
Y0405
T04
X065Y042
X0823512Y0398764
X0828512
X0833512
X0895905Y0435559
Y0440559
Y0445559
X125Y052
X118
X111
X104
X097
X0898
X0829Y0521
X076Y052
X065Y049
Y056
T05
X0660157Y0332441
X067
X0679843
X0730158
X074
X0749843
X0800158
X081
X0819843
X125Y0497559
X1259842
X1240158
X1189843
X118
X1170158
X1119843
X111
X1100158
X1049842
X104
X1030157
T06
X076Y0424488
Y0436693
Y046937
T07
X0649134Y036
X0690866
X0719134
X0760866
X0789134
X0830866
X1270866Y047
X1229134
X1200866
X1159134
X1130866
X1089134
X1060866
X1019134
T08
X076Y045
M30
